<svg  id="Calque_2" xmlns="http://www.w3.org/2000/svg" viewBox="0 0 172.38 137.33">
    <defs>
        <style>
            g {
                z-index: 10;
            }
            .cls-1{fill:#4d2a22;}.cls-2{fill:#a8dbf6;}.cls-3{fill:#fdc59d;}.cls-4,.cls-5{fill:#e74d4e;}.cls-4{opacity:0.35;}.cls-6,.cls-7{fill:#fffdfa;}.cls-7{opacity:0.15;}</style>
    </defs>
    <g data-name="Calque 2">
        <g id="OBJECTS">
            <path class="cls-1"
                d="M40.09,69.35s-20.43,15-19.91,22.05a43.69,43.69,0,0,0,2,11s-3.66,1.89-2.77,5a6.11,6.11,0,0,0,3.58,4s-4.44,2.12-3.41,4.52a20.69,20.69,0,0,1,1.34,4.66s-5-.57-8.55,2.46-4.62,9.07-4.62,9.07L2.2,126.36s-8.49,9.54,7.86,10.88,13.47-12.81,13.8-14.59c0,0,10.58,3.72,10.61-.09a97.06,97.06,0,0,0-.9-10.61s2.89,2.7,6.17-1.1,5.59-20.42,5.59-20.42Z" />
            <path class="cls-2"
                d="M26.5,123.63C26,123,21,114.69,19.58,116a11.35,11.35,0,0,0-2.34,3.31l6.57,7.62Z" />
            <path class="cls-1"
                d="M107.28,58.84s25.07,3.58,27.95,10.08a43.82,43.82,0,0,1,3.43,10.67s4.12,0,4.8,3.11a6.15,6.15,0,0,1-1.27,5.24s4.92-.22,5.14,2.38a21,21,0,0,0,1,4.74s4.19-2.88,8.7-1.86S165.4,99,165.4,99l2.15-7.74s12,4.42-1.81,13.3-17.91-5-19-6.37c0,0-7.58,8.27-9.41,4.92a96.41,96.41,0,0,1-4.19-9.79s-1.29,3.75-6,1.93S112.58,79.9,112.58,79.9Z" />
            <path class="cls-2"
                d="M144.84,100.33c.16-.82.62-10.47,2.49-10A11.2,11.2,0,0,1,151,92.14L148.75,102Z" />
            <path class="cls-3"
                d="M135.75,66.75c1.77,8.1-2.82,16-10.25,17.61s-14.89-3.64-16.66-11.75,2.83-16,10.26-17.61S134,58.64,135.75,66.75Z" />
            <path class="cls-4"
                d="M132.39,67.52c1,4.78-1.67,9.43-6,10.39s-8.78-2.15-9.82-6.93,1.67-9.43,6-10.38S131.35,62.74,132.39,67.52Z" />
            <path class="cls-3"
                d="M79.37,34.93l-18.71-.3c-24.41,2.8-28.55,31.26-24.23,51.06l1.29,5.92c-2.12,21.83,23.86,32.35,43.66,28l15.39-3.36c19.8-4.31,41.21-20.36,28-43.66l-1.29-5.92C119.2,46.91,99.17,30.61,79.37,34.93Z" />
            <path class="cls-1"
                d="M91.88,85.57c-7.19-.55-7.46,4.78-10.36,4.3S75.26,85,71.26,88.11,68.89,106.68,87.64,103C100.76,100.35,99.07,86.13,91.88,85.57Z" />
            <path class="cls-5"
                d="M69.51,93.48a20.36,20.36,0,0,1,6.27-.87c7.19.12,13.29,3.84,15.81,9a15,15,0,0,1-4,1.34C74.59,105.55,69.84,98.84,69.51,93.48Z" />
            <path class="cls-6"
                d="M94.44,86.47c-1.4,4.82-6.6,8.35-12.75,8.24A13.49,13.49,0,0,1,70.5,89a3.71,3.71,0,0,1,.76-.85c4-3.11,7.35,1.28,10.26,1.76s3.17-4.85,10.36-4.3A5.35,5.35,0,0,1,94.44,86.47Z" />
            <path class="cls-3"
                d="M47.31,84.66c1.76,8.11-2.83,16-10.26,17.61S22.16,98.63,20.39,90.52s2.83-16,10.26-17.61S45.54,76.55,47.31,84.66Z" />
            <path class="cls-4"
                d="M41.12,85.89c1.05,4.78-1.66,9.43-6,10.39s-8.78-2.15-9.82-6.93,1.66-9.43,6-10.38S40.08,81.11,41.12,85.89Z" />
            <path class="cls-1" d="M23.92,88.22l0,0Z" />
            <path class="cls-1"
                d="M10.38,41.88c2.86-34,58-40.75,58-40.75,29.44-5.68,48.07,11.19,57.35,26.46,12.75,21,10.28,46.56.4,48.63-.68.14-2-29.52-37.76-39.79-13,30.74-45.69,29.11-45.69,29.11,25.58-8.16,23.76-20.46,28.75-29.1-8.12,1.4-31.32,31.4-31.32,31.4s5,15.17,1.26,17.56S34.81,73,34.81,73C21.58,74.41,19.94,85.44,19.94,85.44,17.43,83,8.2,67.68,10.38,41.88Z" />
            <path class="cls-1" d="M22.09,86.42,22,86.35Z" />
            <path class="cls-7" d="M88.63,8.81c-2,3.56,13.46,10,17.66,5.57S90.58,5.25,88.63,8.81Z" />
            <path class="cls-7" d="M86.86,15c-2.77,2.52,3.92,8,8.31,6.42S89.63,12.48,86.86,15Z" />
            <path class="cls-7" d="M23.28,36.25c-4.7,1.21-8.62,10.9-3.4,11.85S28,35,23.28,36.25Z" />
            <path class="cls-7" d="M31.19,40.52c-3.29.84-6,7.63-2.38,8.29S34.49,39.67,31.19,40.52Z" />
            <path class="cls-4"
                d="M65.51,97.42c-.05,3.47-3.79,6.24-8.36,6.17s-8.23-2.93-8.18-6.41,3.8-6.24,8.37-6.17S65.56,93.94,65.51,97.42Z" />
            <path class="cls-1"
                d="M103,54.68a9.47,9.47,0,0,0-7.26-6.46,8.55,8.55,0,0,0-8.8,4.59c-.52,1,1,1.85,1.49.87a6.87,6.87,0,0,1,3.13-3.19,6.22,6.22,0,0,1,3.77-.21,8.44,8.44,0,0,1,6.23,4.8c.34.88,1.76.53,1.44-.4Z" />
            <path class="cls-1"
                d="M51.58,63.75c.57-2.42,2.93-4.43,5.16-5.32a7.75,7.75,0,0,1,3.8-.79,6,6,0,0,1,3.64,1.88c.77.79,2-.43,1.22-1.22A7.85,7.85,0,0,0,60.93,56a18.77,18.77,0,0,0-2.37-.07,6.08,6.08,0,0,0-2.38.46,9.52,9.52,0,0,0-6,7c-.17.94,1.22,1.35,1.45.4Z" />
            <path class="cls-4"
                d="M116.93,86.88c.85,3.37-2.05,7-6.48,8.12s-8.71-.7-9.56-4.07,2-7,6.48-8.13S116.08,83.51,116.93,86.88Z" />
            <path class="cls-6"
                d="M63.28,89.35h0a9.22,9.22,0,0,1-10.47-7.78l-.72-4.83a9.23,9.23,0,0,1,7.78-10.48h0A9.24,9.24,0,0,1,70.35,74l.71,4.83A9.23,9.23,0,0,1,63.28,89.35Z" />
            <path class="cls-1"
                d="M70.35,74a9.19,9.19,0,0,0-4.12-6.38,6.74,6.74,0,0,0-2.33-.08c-4.44.66-7.39,5.64-6.58,11.13s5.08,9.4,9.52,8.74a6.48,6.48,0,0,0,1.17-.3,9.17,9.17,0,0,0,3-8.28Z" />
            <path class="cls-1"
                d="M79.32,78.13c.43.69.83,1.4,1.29,2.07a.51.51,0,0,0,.86,0c.25-.45.51-.89.77-1.33l.39-.64a1.68,1.68,0,0,1,.47-.55l-.59-.34c0,.29.07.59.1.88s.07.61.1.91.05.59.06.89a2.27,2.27,0,0,0,.14,1,.42.42,0,0,0,.72,0,2,2,0,0,0,.07-1c0-.3,0-.6-.08-.89s-.07-.62-.13-.93a7,7,0,0,0-.21-.93.4.4,0,0,0-.76,0,2,2,0,0,1-.44.57l-.51.58c-.34.42-.66.86-1,1.31h.86c-.39-.71-.86-1.39-1.28-2.08a.5.5,0,1,0-.87.51Z" />
            <path class="cls-6"
                d="M97.43,83.87h0a9.22,9.22,0,0,0,8.18-10.16l-.52-4.86a9.23,9.23,0,0,0-10.17-8.18h0a9.24,9.24,0,0,0-8.18,10.16l.53,4.86a9.22,9.22,0,0,0,10.16,8.18" />
            <path class="cls-1"
                d="M86.74,70.83a9.2,9.2,0,0,1,2.38-7.21A6.53,6.53,0,0,1,91.35,63c4.47-.49,8.58,3.59,9.18,9.1s-2.55,10.38-7,10.86a6.88,6.88,0,0,1-1.2,0,9.21,9.21,0,0,1-5-7.25Z" />
        </g>
    </g>
</svg>