<svg id="Calque_2" xmlns="http://www.w3.org/2000/svg" viewBox="0 0 165.79 120.78">
    <defs>
        <style>
            .cls-1{fill:#4d2a22;}.cls-2{fill:#fdc59d;}.cls-3{fill:#e74d4e;opacity:0.35;}.cls-4{fill:none;stroke:#4d2a22;stroke-linecap:round;stroke-linejoin:round;stroke-width:2px;}.cls-5,.cls-6{fill:#fffdfa;}.cls-6{opacity:0.15;}.cls-7{fill:#62416d;}</style>
    </defs>
    <g  data-name="Calque 2">
        <g id="OBJECTS">
            <path class="cls-1"
                d="M136.94,76.65s21.26,32.39.12,41.14a14.31,14.31,0,0,0,2-11.33s-1.45,11.61-13.42,13.83-15.07-3.81-15.07-3.81l-17.24-2.91s-72.95-8.9-81.86-19.47,6.1-28.2,6.1-28.2S-.46,81.83,7.36,93c0,0-11.82-5.6-5.5-19.9S23.64,49,23.64,49,36.16-3.83,80.78,2.87C105.12,6.53,136.94,76.65,136.94,76.65Z" />
            <path class="cls-2"
                d="M22.36,67.59c-1.56,8.15,3.23,15.92,10.7,17.35s14.79-4,16.35-12.17-3.23-15.91-10.7-17.34S23.92,59.44,22.36,67.59Z" />
            <path class="cls-3"
                d="M25.74,68.28c-.92,4.81,1.91,9.39,6.31,10.23s8.72-2.37,9.64-7.17-1.9-9.39-6.3-10.23S26.66,63.48,25.74,68.28Z" />
            <path class="cls-2"
                d="M76.62,31.83,95.48,36.7c24.48,2.18,29.17,24.89,25.35,44.79l-1.14,6c2.66,21.77-23,32.94-42.94,29.13l-15.47-3A36.7,36.7,0,0,1,32.15,70.66l1.14-6C37.11,44.81,56.72,28,76.62,31.83Z" />
            <path class="cls-4"
                d="M67.24,75.12,67.9,71a8.18,8.18,0,0,0-7.06-9.14h0a8.17,8.17,0,0,0-9.54,6.51l-.66,4.14" />
            <path class="cls-4"
                d="M102.26,81.69l.44-4.17a8.18,8.18,0,0,0-7.53-8.77h0a8.19,8.19,0,0,0-9.19,7l-.44,4.17" />
            <path class="cls-5"
                d="M64.05,80.76c4.17-.56,7.61,4.56,10.44,4.19s9.72-3.74,11-.55S82.26,95.54,71.9,94,59.88,81.32,64.05,80.76Z" />
            <path class="cls-2"
                d="M108.12,81.05c-1.57,8.15,3.23,15.92,10.7,17.35s14.79-4,16.35-12.17-3.23-15.91-10.7-17.35S109.68,72.9,108.12,81.05Z" />
            <path class="cls-3"
                d="M114.33,82.13c-.92,4.8,1.9,9.38,6.31,10.23s8.72-2.37,9.64-7.18S128.37,75.8,124,75,115.25,77.32,114.33,82.13Z" />
            <path class="cls-1"
                d="M42.61,20.52s14.21-31.59,60.94-13c54.3,14.8,38.05,67.69,31.7,74.26,0,0,.13-11.63-12.62-13-2.41,5-6.82,13.61-8.3,13.31s-.09-11.62.91-18.95a64.88,64.88,0,0,1-16-23.35,38.36,38.36,0,0,0-5.31-2.42c-5-.77-11.17-1.23-16.68-.2C65.47,39.39,53.61,52.14,52.54,49.58c-.61-1.46.9-6.52,2.31-10.59-.9.34-1.81.69-2.73,1.08C43.06,43.69,33.17,67.65,32.77,67,28.46,59.73,31.91,34.39,42.61,20.52Z" />
            <path class="cls-6" d="M61.81,6.34c-6-.15-13.9,10.05-8,12.93S67.8,6.49,61.81,6.34Z" />
            <path class="cls-6" d="M69.77,14.06c-4.2-.1-9.73,7-5.62,9S74,14.17,69.77,14.06Z" />
            <path class="cls-1" d="M135.18,81.86l.07-.08Z" />
            <path class="cls-6"
                d="M132.72,31.73c4.74,1.09,8.9,10.68,3.7,11.76S128,30.64,132.72,31.73Z" />
            <path class="cls-6"
                d="M124.92,36.2c3.32.76,6.23,7.48,2.59,8.23S121.61,35.44,124.92,36.2Z" />
            <path class="cls-3"
                d="M91.17,90.86c-.77,3.39,2.22,7,6.68,8s8.69-.93,9.45-4.32-2.22-7-6.68-8S91.93,87.47,91.17,90.86Z" />
            <path class="cls-1"
                d="M54.44,54.13a8.43,8.43,0,0,1,7.07-3.39,6.29,6.29,0,0,1,3.65,1,6.7,6.7,0,0,1,2.41,3.77A.86.86,0,0,0,69.23,55a9,9,0,0,0-2.09-3.8,10,10,0,0,0-3.22-2.08,8.56,8.56,0,0,0-7.65.92,10,10,0,0,0-3.12,3.3.75.75,0,0,0,1.29.76Z" />
            <path class="cls-1"
                d="M107,61.14a9.53,9.53,0,0,0-6.2-6.8,5.77,5.77,0,0,0-2.39-.41,18.72,18.72,0,0,0-2.37.12,7.79,7.79,0,0,0-4.41,2.39c-.76.81.46,2,1.22,1.22a6.12,6.12,0,0,1,3.55-2,7.64,7.64,0,0,1,3.84.69c2.25.81,4.69,2.77,5.32,5.17.24.94,1.64.54,1.44-.4Z" />
            <path class="cls-3"
                d="M41.13,79.48c-.77,3.39,2.22,7,6.68,8s8.69-.92,9.45-4.31-2.22-7-6.68-8S41.89,76.09,41.13,79.48Z" />
            <path class="cls-1"
                d="M76.89,74.52c-.41.7-.86,1.39-1.23,2.1h.85a15.08,15.08,0,0,0-1-1.28L75,74.78a1.82,1.82,0,0,1-.47-.57.4.4,0,0,0-.76,0,7.42,7.42,0,0,0-.18.94c0,.31-.08.62-.11.93s0,.59-.06.89a2.11,2.11,0,0,0,.09,1,.42.42,0,0,0,.72,0,2.07,2.07,0,0,0,.12-1c0-.31,0-.62,0-.93s0-.58.07-.88.08-.61.09-.91l-.6.34a1.42,1.42,0,0,1,.48.52c.14.21.28.42.41.64.27.43.55.86.81,1.3a.49.49,0,0,0,.85,0c.45-.67.83-1.4,1.24-2.1a.5.5,0,0,0-.86-.5Z" />
            <path class="cls-1"
                d="M135.26,23.44S145.65,1,151.16,0l4.35,5.37s-9,5-11.07,8.64c0,0,13.44-7.77,15-7.86l6.39,14.72s-21.11,1.21-20,1.71,18.82.62,18.82.62l.58,7S141,33.72,139.88,32.37,135.26,23.44,135.26,23.44Z" />
            <path class="cls-7"
                d="M148.09,29.31c-6.56-10.51-17.65,1-12.1,7.91S153.74,38.36,148.09,29.31Z" />
            <path class="cls-6"
                d="M145.18,28.84c-4.2-.24-6.41,7.14-.89,7.06S149.09,29.06,145.18,28.84Z" />
            <path class="cls-7"
                d="M140.91,18.6c-6.56-10.51-17.65,1-12.09,7.91S146.57,27.65,140.91,18.6Z" />
            <path class="cls-6" d="M138,18.13c-4.2-.24-6.42,7.14-.9,7.06S141.92,18.35,138,18.13Z" />
        </g>
    </g>
</svg>