<svg id="Calque_2" xmlns="http://www.w3.org/2000/svg" viewBox="0 0 180.6 132.97">
    <defs>
        <style>
            .cls-1{isolation:isolate;}.cls-11,.cls-2,.cls-3{fill:#4d2a22;}.cls-11,.cls-3{mix-blend-mode:multiply;}.cls-3{opacity:0.3;}.cls-4{fill:#62c447;}.cls-5{fill:#a8dbf6;opacity:0.52;}.cls-10,.cls-6{fill:#fffdfa;}.cls-11,.cls-6{opacity:0.15;}.cls-7{fill:#fdc59d;}.cls-8{fill:#e74d4e;opacity:0.35;}.cls-9{fill:#e94d4e;}</style>
    </defs>
    <g class="cls-1">
        <g  data-name="Calque 2">
            <g id="OBJECTS">
                <path class="cls-2"
                    d="M153.13,61.56s9.8,2.35,13.84-2.74-4.26-7.48-4.26-7.48,15.53,3.23,17.39-6.47-6.82-15.3-6.82-15.3S187.91,18.73,175.79,11s-17.69,4-17.69,4S162.51,1.93,150,.11s-14,19.68-14,19.68-5.79-16.52-14.56.36,13,32.49,13,32.49Z" />
                <path class="cls-3"
                    d="M153.13,61.56s9.8,2.35,13.84-2.74-4.26-7.48-4.26-7.48,15.53,3.23,17.39-6.47-6.82-15.3-6.82-15.3S187.91,18.73,175.79,11s-17.69,4-17.69,4S162.51,1.93,150,.11s-14,19.68-14,19.68-5.79-16.52-14.56.36,13,32.49,13,32.49Z" />
                <path class="cls-4"
                    d="M160,65.26s4.08-1.73,3.23-7.75S144.05,18.06,119,21.16l-9.26,8.28Z" />
                <path class="cls-5"
                    d="M160,65.26s4.08-1.73,3.23-7.75S144.05,18.06,119,21.16l-9.26,8.28Z" />
                <path class="cls-6"
                    d="M146.73,3.37c-6.25.84-8.23,7.35-2.71,8.1S153,2.52,146.73,3.37Z" />
                <path class="cls-2"
                    d="M55.46,44.28S51.54,35,45.05,34.76s-3.5,7.86-3.5,7.86S35,28.2,26,32.45,17.74,47,17.74,47-.95,40.31,0,54.63,16.88,71.05,16.88,71.05s-15,1-9.09,12.14,24.15-.38,24.15-.38-9.87,14.46,8.92,11.52S59.34,64.61,59.34,64.61Z" />
                <path class="cls-3"
                    d="M55.46,44.28S51.54,35,45.05,34.76s-3.5,7.86-3.5,7.86S35,28.2,26,32.45,17.74,47,17.74,47-.95,40.31,0,54.63,16.88,71.05,16.88,71.05s-15,1-9.09,12.14,24.15-.38,24.15-.38-9.87,14.46,8.92,11.52S59.34,64.61,59.34,64.61Z" />
                <path class="cls-4"
                    d="M62.9,41.64a7.67,7.67,0,0,0-7.35-1.16c-5.29,2-15.38,32.32-6.63,46.39,1.62,2.61,6.9,2.12,10.88,1.51Z" />
                <path class="cls-5"
                    d="M62.9,41.64a7.67,7.67,0,0,0-7.35-1.16c-5.29,2-15.38,32.32-6.63,46.39,1.62,2.61,6.9,2.12,10.88,1.51Z" />
                <path class="cls-6" d="M28.08,36c-4.91,2.51-.67,11.7,4.63,10.23S33,33.49,28.08,36Z" />
                <path class="cls-6" d="M22,42.93c-2.29,1.3-.07,9.32,3,8S24.33,41.63,22,42.93Z" />
                <path class="cls-7"
                    d="M168.24,81.24c2,7.57-2,15.2-8.89,17.06S145.16,95.53,143.13,88s2-15.2,8.9-17S166.22,73.68,168.24,81.24Z" />
                <path class="cls-8"
                    d="M165.11,82.12c1.19,4.46-1.16,9-5.25,10.06s-8.37-1.64-9.56-6.1,1.16-9,5.24-10S163.91,77.66,165.11,82.12Z" />
                <path class="cls-9"
                    d="M165.67,88.28c-2.33-1.15-3.29,1.88-3.29,1.88s-2-2.93-3.58-1.64,1.46,6.48,4.28,6.38S168,89.44,165.67,88.28Z" />
                <path class="cls-7"
                    d="M113.54,51.85,96.12,57.72C73.23,61.44,70.36,83.12,75.3,101.6l1.48,5.52c-1,20.68,23.93,29.44,42.4,24.5l14.35-3.84A34.63,34.63,0,0,0,158,85.38l-1.48-5.52C151.62,61.39,132,46.91,113.54,51.85Z" />
                <path class="cls-2"
                    d="M138.55,69a8.92,8.92,0,0,0-5.81-4.48,7.23,7.23,0,0,0-3.78,0,10.16,10.16,0,0,0-3.23,1.76,8.15,8.15,0,0,0-2.48,3.91c-.34,1.06,1.34,1.52,1.66.45a6.25,6.25,0,0,1,2.28-3.39,3.73,3.73,0,0,1,1.57-.71,16.17,16.17,0,0,1,2-.15,7.91,7.91,0,0,1,6.52,3.38.75.75,0,0,0,1.3-.76Z" />
                <path class="cls-2"
                    d="M87.92,80.08c.44-2.34,2.59-4.31,4.68-5.26.54-.24,1.11-.45,1.66-.68A3.93,3.93,0,0,1,96,73.93a5.56,5.56,0,0,1,3.48,1.56c.81.77,2-.46,1.22-1.21a7.58,7.58,0,0,0-4.39-2,17.43,17.43,0,0,0-2.17,0,6.18,6.18,0,0,0-2.35.56,8.94,8.94,0,0,0-5.35,6.81c-.12.93,1.27,1.36,1.45.4Z" />
                <path class="cls-10"
                    d="M101.9,103.65h0A8.71,8.71,0,0,1,91.52,97l-1-4.5a8.71,8.71,0,0,1,6.62-10.39h0a8.71,8.71,0,0,1,10.38,6.62l1,4.5A8.71,8.71,0,0,1,101.9,103.65Z" />
                <path class="cls-2"
                    d="M107.52,88.76a8.65,8.65,0,0,0-4.3-5.73,6.22,6.22,0,0,0-2.19.09c-4.15.92-6.59,5.8-5.45,10.91s5.4,8.51,9.55,7.59a5.61,5.61,0,0,0,1.07-.36,8.69,8.69,0,0,0,2.32-8Z" />
                <path class="cls-10"
                    d="M135.43,95.85h0a8.71,8.71,0,0,0,5.18-11.17L139,80.35a8.7,8.7,0,0,0-11.18-5.17h0a8.7,8.7,0,0,0-5.17,11.17l1.59,4.33a8.7,8.7,0,0,0,11.17,5.17" />
                <path class="cls-2"
                    d="M122.67,86.35a8.65,8.65,0,0,1,.53-7.14,6.13,6.13,0,0,1,1.9-1.11c4-1.47,8.67,1.33,10.47,6.24s0,10.08-3.94,11.54a6.15,6.15,0,0,1-1.1.29,8.7,8.7,0,0,1-6.27-5.49Z" />
                <path class="cls-2"
                    d="M123.69,97.59a4.34,4.34,0,0,1-2.46,2.63,8,8,0,0,1-3.76,1,5.81,5.81,0,0,1-3.22-.88A4.92,4.92,0,0,1,113,99.31,14.23,14.23,0,0,0,112,98a.43.43,0,0,0-.72.29c0,1.28,1.31,2.43,2.29,3a7,7,0,0,0,4,1,9.23,9.23,0,0,0,4.36-1.36,4.92,4.92,0,0,0,2.63-3.17c.09-.56-.75-.82-.87-.24Z" />
                <path class="cls-7"
                    d="M87.24,100.32c2,7.57-1.95,15.2-8.89,17.06S64.16,114.6,62.13,107,64.09,91.84,71,90,85.22,92.76,87.24,100.32Z" />
                <path class="cls-8"
                    d="M81.47,101.76c1.19,4.46-1.15,9-5.24,10s-8.37-1.63-9.57-6.09,1.16-9,5.25-10.06S80.28,97.3,81.47,101.76Z" />
                <path class="cls-9"
                    d="M76.6,110c-2.33-1.15-3.29,1.88-3.29,1.88s-2-2.93-3.58-1.64,1.46,6.48,4.28,6.38S78.93,111.11,76.6,110Z" />
                <path class="cls-2" d="M63.62,104.54l0,0Z" />
                <path class="cls-2" d="M62.18,103.24l-.22-.19Z" />
                <path class="cls-2"
                    d="M109,23.51c8.05.23,16.13,1,23.43,4.42,31.14,14.53,33.08,54,26.16,58.67-.59.4-2.81-13.86-11.37-23.25-10.09-12.62-24.72-11.15-36.73-8.05C108.92,91.21,86,89,86,89c16.73-6,19.49-25,19.92-32.46l-1.5.45a14.21,14.21,0,0,0-3.19,5.61C98.49,71.09,95.61,87,80,89.22c1.36,4.66,2.3,10.34,1.35,10.67-3.15,1.12-8.12-10.18-8.12-10.18C60.81,91.62,61.66,104,61.66,104,27.54,43.25,77.7,22.62,109,23.51Z" />
                <path class="cls-11"
                    d="M109,23.51c8.05.23,16.13,1,23.43,4.42,31.14,14.53,33.08,54,26.16,58.67-.59.4-2.81-13.86-11.37-23.25-10.09-12.62-24.72-11.15-36.73-8.05C108.92,91.21,86,89,86,89c16.73-6,19.49-25,19.92-32.46l-1.5.45a14.21,14.21,0,0,0-3.19,5.61C98.49,71.09,95.61,87,80,89.22c1.36,4.66,2.3,10.34,1.35,10.67-3.15,1.12-8.12-10.18-8.12-10.18C60.81,91.62,61.66,104,61.66,104,27.54,43.25,77.7,22.62,109,23.51Z" />
                <path class="cls-2" d="M61.82,102.92l-.07-.06Z" />
                <path class="cls-2" d="M62,103.05l-.13-.12Z" />
                <path class="cls-6"
                    d="M109.58,27.19c-1.69,3.44,13.14,8.88,16.89,4.47S111.26,23.75,109.58,27.19Z" />
                <path class="cls-6"
                    d="M108.19,33.09c-2.5,2.5,4,7.38,8.11,5.69S110.68,30.6,108.19,33.09Z" />
                <path class="cls-6"
                    d="M58.77,59.87c-4.39,1.34-7.65,10.65-2.69,11.32S63.15,58.52,58.77,59.87Z" />
                <path class="cls-6"
                    d="M66.41,63.54c-3.07.94-5.35,7.46-1.88,7.93S69.48,62.6,66.41,63.54Z" />
                <path class="cls-8"
                    d="M102.65,111.28c.08,3.28-3.35,6-7.66,6.13s-7.86-2.47-7.94-5.75,3.35-6,7.65-6.12S102.57,108,102.65,111.28Z" />
                <path class="cls-8"
                    d="M151.22,98.35c.95,3.14-1.63,6.69-5.75,7.94s-8.24-.28-9.19-3.41,1.62-6.7,5.74-7.95S150.26,95.21,151.22,98.35Z" />
                <path class="cls-2"
                    d="M115.37,92.57c.43.63.85,1.29,1.31,1.9a.53.53,0,0,0,.43.24.51.51,0,0,0,.43-.24c.21-.44.44-.86.66-1.29.11-.21.22-.42.34-.62a1.37,1.37,0,0,1,.4-.54l-.59-.34c0,.29.1.59.14.88s.09.57.14.85l.09.79a2,2,0,0,0,.16.94.42.42,0,0,0,.72,0,1.67,1.67,0,0,0,.05-.94c0-.31-.08-.62-.13-.93s-.09-.57-.16-.84a7.74,7.74,0,0,0-.23-.86.43.43,0,0,0-.38-.29.41.41,0,0,0-.39.29,1.48,1.48,0,0,1-.37.56l-.46.57a13.24,13.24,0,0,0-.85,1.26h.86c-.41-.65-.87-1.26-1.31-1.89a.5.5,0,0,0-.86.5Z" />
            </g>
        </g>
    </g>
</svg>