<svg id="Calque_2" xmlns="http://www.w3.org/2000/svg" viewBox="0 0 156.78 128.58">
    <defs>
        <style>
            .cls-1{isolation:isolate;}.cls-2,.cls-3{fill:#4d2a22;}.cls-3{mix-blend-mode:multiply;opacity:0.19;}.cls-4{fill:#e94d4e;}.cls-5,.cls-9{fill:#fffdfa;}.cls-5{opacity:0.15;}.cls-6{fill:#fdc59d;}.cls-7,.cls-8{fill:#e74d4e;}.cls-7{opacity:0.35;}</style>
    </defs>
    <g class="cls-1">
        <g data-name="Calque 2">
            <g id="OBJECTS">
                <path class="cls-2" d="M119.52,46.84s5.63-22.88,24.75-14S162.84,84,126.8,72.26Z" />
                <path class="cls-3" d="M119.52,46.84s5.63-22.88,24.75-14S162.84,84,126.8,72.26Z" />
                <path class="cls-4"
                    d="M117,40.47s2.3-5.14,6.38-3.5,11.23,35.87,6.47,41-10.37,1.48-10.37,1.48Z" />
                <path class="cls-5"
                    d="M138.77,35.15c2.55,3.89-5.29,8.15-9.62,4.9C126.09,37.76,136.23,31.26,138.77,35.15Z" />
                <path class="cls-5"
                    d="M140.1,42.84c1.54,3.19-4.73,5.83-7.86,3.41S138.56,39.65,140.1,42.84Z" />
                <path class="cls-2" d="M39.45,24.08S45.27,1.25,24.25,0s-40.5,36.38-3.19,43Z" />
                <path class="cls-3" d="M39.45,24.08S45.27,1.25,24.25,0s-40.5,36.38-3.19,43Z" />
                <path class="cls-4"
                    d="M16.14,44S12,45,12.49,40.63s17.39-27.9,28.77-27.7c5.75.1,7.54,8.21,7.54,8.21Z" />
                <path class="cls-5"
                    d="M28,4.69c-4.08,2.23.82,9.69,6.17,8.86C37.94,13,32.06,2.46,28,4.69Z" />
                <path class="cls-5"
                    d="M23.19,10.85c-2.86,2.09,1.43,7.37,5.33,6.71S26.05,8.76,23.19,10.85Z" />
                <path class="cls-6"
                    d="M2,73.76c-2.22,8,1.91,16.12,9.24,18.16s15.07-2.78,17.3-10.77S26.62,65,19.29,63,4.22,65.76,2,73.76Z" />
                <path class="cls-7"
                    d="M5.31,74.72C4,79.44,6.43,84.23,10.75,85.43s8.89-1.64,10.2-6.35-1.12-9.51-5.44-10.71S6.62,70,5.31,74.72Z" />
                <path class="cls-6"
                    d="M59,42.57,77.4,49c24.22,4.2,27,27.21,21.59,46.73l-1.63,5.83c.87,21.93-25.66,30.95-45.19,25.51L37,122.82a36.7,36.7,0,0,1-25.5-45.2l1.63-5.83C18.56,52.27,39.49,37.14,59,42.57Z" />
                <path class="cls-2"
                    d="M83,87.72c.53,4-15.37,4.25-16.63,2.76C63.85,87.53,82.62,84.91,83,87.72Z" />
                <path class="cls-2"
                    d="M32.35,72.53c-3,3.52,12.06,13.62,14.2,13C50.77,84.25,34.46,70.06,32.35,72.53Z" />
                <path class="cls-2"
                    d="M45.22,91.68c7.22,0,7,5.38,10,5.13s6.64-4.33,10.37-.91.83,18.7-17.54,13.45C35.16,105.68,38,91.64,45.22,91.68Z" />
                <path class="cls-8"
                    d="M66.87,101.4A20.35,20.35,0,0,0,60.69,100c-7.18-.47-13.56,2.73-16.51,7.68A15.42,15.42,0,0,0,48,109.35C60.81,113,66.09,106.72,66.87,101.4Z" />
                <path class="cls-9"
                    d="M42.6,92.37c1,4.91,5.89,8.86,12,9.26a13.51,13.51,0,0,0,11.63-4.82,4,4,0,0,0-.69-.91c-3.73-3.42-7.43.67-10.37.91s-2.75-5.09-10-5.13A5.28,5.28,0,0,0,42.6,92.37Z" />
                <path class="cls-6"
                    d="M92.48,98.78c-2.22,8,1.91,16.13,9.24,18.17s15.07-2.79,17.3-10.78S117.11,90,109.78,88,94.71,90.78,92.48,98.78Z" />
                <path class="cls-7"
                    d="M98.58,100.36c-1.31,4.72,1.13,9.51,5.45,10.72s8.89-1.65,10.2-6.36-1.12-9.51-5.45-10.71S99.9,95.65,98.58,100.36Z" />
                <path class="cls-2"
                    d="M91.38,19C13.45-10.71,8.12,66.23,12,73.79c.36.71,3.83-12.24,15.41-20.9a19,19,0,0,1,1.9-1.26c-1.2,3.18-1.74,5.83-1.1,7.29,1.49,3.41,11.89-1.34,21.08-6.38-2.13,3-4.11,6.74-1.8,8.31,2.8,1.9,25.1-7.05,25.1-7.05s-9.22,4.62-7.6,8.92,16.35,1,25.39-3.95C95.46,66.65,100.46,89,100.46,89c17.54-1.75,18.92,9.73,18.92,9.73C126.24,92.73,144.28,38.19,91.38,19Z" />
                <path class="cls-2" d="M113.26,97.25l.08-.07Z" />
                <path class="cls-5"
                    d="M56.91,16.3c2,3.53-13.32,10.24-17.58,5.83S54.9,12.77,56.91,16.3Z" />
                <path class="cls-5" d="M57.43,24.54c2.43,2.83-4.88,7.46-9,5.34S55,21.7,57.43,24.54Z" />
                <path class="cls-5"
                    d="M114.93,47.09c4.63,1.47,8,11.37,2.72,12S110.3,45.62,114.93,47.09Z" />
                <path class="cls-5"
                    d="M106.79,50.9c3.24,1,5.59,8,1.91,8.42S103.55,49.87,106.79,50.9Z" />
                <path class="cls-7"
                    d="M71.12,102.28c-.55,3.43,2.66,6.8,7.17,7.52s8.62-1.48,9.16-4.91-2.66-6.8-7.17-7.52S71.67,98.85,71.12,102.28Z" />
                <path class="cls-2"
                    d="M37.94,63.72a8.43,8.43,0,0,1,7-3.59,6.35,6.35,0,0,1,3.72.91,6.67,6.67,0,0,1,2.49,3.67c.31,1.06,2,.61,1.66-.46a8.91,8.91,0,0,0-2.21-3.77,10.18,10.18,0,0,0-3.32-2c-2.38-1-5.5-.26-7.57,1.15a9.71,9.71,0,0,0-3,3.35.75.75,0,0,0,1.29.76Z" />
                <path class="cls-2"
                    d="M88.39,73.38A9.48,9.48,0,0,0,82.85,66a6.53,6.53,0,0,0-2.52-.65A14.83,14.83,0,0,0,78,65.28a7.9,7.9,0,0,0-4.63,2.07c-.83.74.4,2,1.22,1.22a5.92,5.92,0,0,1,3.66-1.63,4.38,4.38,0,0,1,2,.24c.59.24,1.2.47,1.77.74,2.22,1.06,4.47,3.16,4.91,5.66.14.83,1.58.65,1.47-.2Z" />
                <path class="cls-7"
                    d="M17.45,87.27c-1,3.32,1.65,7.12,6,8.49s8.74-.21,9.78-3.53-1.65-7.11-6-8.48S18.49,84,17.45,87.27Z" />
                <path class="cls-2"
                    d="M55.74,85.18c-.46.66-1,1.31-1.4,2h.86a14.06,14.06,0,0,0-.86-1.31c-.15-.21-.31-.41-.47-.61a1.78,1.78,0,0,1-.42-.64.41.41,0,0,0-.38-.29.43.43,0,0,0-.39.29,9.25,9.25,0,0,0-.43,1.8c0,.32-.1.64-.14,1a1.85,1.85,0,0,0,0,1,.42.42,0,0,0,.72,0,2.18,2.18,0,0,0,.18-1c0-.27.07-.55.11-.83.09-.6.24-1.21.31-1.82l-.59.34a1.57,1.57,0,0,1,.41.56c.13.22.25.45.37.68.23.46.48.91.69,1.37a.5.5,0,0,0,.43.25.5.5,0,0,0,.43-.25c.5-.64.94-1.33,1.41-2a.5.5,0,0,0-.18-.68.52.52,0,0,0-.69.18Z" />
            </g>
        </g>
    </g>
</svg>