<?xml version="1.0" encoding="utf-8"?>
<svg version="1.1" xmlns="http://www.w3.org/2000/svg" xmlns:xlink="http://www.w3.org/1999/xlink"
	x="0px" y="0px"
	viewBox="0 0 750 500" style="enable-background:new 0 0 750 500;" xml:space="preserve">
<style type="text/css">
	.st0{fill:#E94D4E;}
	.st1{opacity:0.19;fill:#FFFFFF;}
	.st2{opacity:0.34;fill:#FFFDFA;}
	.st3{fill:#FFFFFF;}
	.st4{opacity:0.15;fill:#FFFDFA;}
	.st5{opacity:0.37;fill:#FFFDFA;}
	.st6{fill:#4D2A22;}
	.st7{opacity:0.19;fill:#4D2A22;}
	.st8{opacity:0.2;fill:#FFFDFA;}
	.st9{opacity:0.61;fill:#4D2A22;}
	.st10{fill:#62416D;}
	.st11{fill:#A8DBF6;}
	.st12{opacity:0.39;fill:#FFFDFA;}
	.st13{fill:none;stroke:#FFFDFA;stroke-miterlimit:10;}
	.st14{opacity:0.63;fill:#FFFDFA;}
	.st15{opacity:0.27;fill:#FFFDFA;}
	.st16{opacity:0.56;fill:#62416D;}
	.st17{fill:#F4B306;}
	.st18{opacity:0.18;fill:#FFFDFA;}
	.st19{opacity:0.33;fill:#FFFDFA;}
	.st20{opacity:0.42;fill:none;stroke:#4D2A22;stroke-width:0.75;stroke-miterlimit:10;}
	.st21{opacity:0.31;}
	.st22{opacity:0.31;fill:#4D2A22;}
	.st23{opacity:0.08;fill:#FFFDFA;}
	.st24{opacity:0.38;fill:#FFFDFA;}
	.st25{opacity:0.19;fill:#FFFDFA;}
	.st26{fill:none;stroke:#4D2A22;stroke-miterlimit:10;}
	.st27{opacity:0.16;fill:#FFFDFA;}
	.st28{opacity:0.54;fill:#FFFDFA;}
	.st29{opacity:0.57;fill:#FFFFFF;}
	.st30{opacity:0.32;fill:#FFFDFA;}
	.st31{opacity:0.87;fill:#FFFDFA;}
	.st32{fill:#FDC59D;}
	.st33{opacity:0.35;fill:#E74D4E;}
	.st34{fill:#E74D4E;}
	.st35{fill:#FFFDFA;}
	.st36{fill:none;stroke:#4D2A22;stroke-width:2;stroke-linecap:round;stroke-linejoin:round;stroke-miterlimit:10;}
	.st37{opacity:0.3;fill:#4D2A22;}
	.st38{fill:#62C447;}
	.st39{opacity:0.52;fill:#A8DBF6;}
	.st40{opacity:0.15;fill:#4D2A22;}

	#id1 {  animation: anim1 8s infinite;}

	@keyframes anim1 {
		0% {transform: scale(1);}

		50% {transform: scale(1.1);}

		100% {transform: scale(1);}
	}

	#fille_s_licorne {  animation: anim2 8s infinite;}

	@keyframes anim2 {
		0% {transform: translate(0,-10px);}

		50% {transform: translate(20px,-20px);}

		100% {transform: translate(0,-10px);}
	}

	#fille_d_licorne {  animation: anim3 8s infinite;}

	@keyframes anim3 {
		0% {transform: translate(0,10px);}

		50% {transform: translate(-20px,20px);}

		100% {transform: translate(0,10px);}
	}

	#fille_s_nounours {  animation: anim4 8s infinite;}

	@keyframes anim4 {
		0% {transform: translate(0,-30px);}

		50% {transform: translate(-10px,-20px);}

		100% {transform: translate(0,-30px);}
	}

	#fille_d_nounours {  animation: anim5 8s infinite;}

	@keyframes anim5 {
		0% {transform: translate(0,30px);}

		50% {transform: translate(10px,-10px);}

		100% {transform: translate(0,30px);}
	}

	#nounours {  animation: anim6 6s cubic-bezier(.8, 0, .2, 1) infinite;}

	@keyframes anim6 {
		0% {transform: rotate(0deg);}

		50% {transform: rotate(5deg);}

		100% {transform: rotate(0deg);}
	}

	#licorne  {  animation: anim7 6s cubic-bezier(.8, 0, .2, 1) infinite;}

	@keyframes anim7 {
		0% {transform: rotate(5deg);}

		50% {transform: rotate(0deg);}

		100% {transform: rotate(5deg);}
	}

	#guitare {  
		transform-origin: 50% 50%;
		animation: anim8 6s infinite;}

	@keyframes anim8 {
    0% { transform: scale(1) rotate(-1deg); }

    25% {   transform: scale(0.95) rotate(0deg);  }

    50% {  transform: scale(1) rotate(1deg);   }

    75% {  transform: scale(0.95) rotate(0deg);   }

    100% { transform: scale(1) rotate(-1deg);  }
	}

	.etoile {  
		transform-origin: 50% 50%;
		animation: anim9 6s infinite;}

	@keyframes anim9 {
	0% { transform: rotate(-1deg); }


	50% {  transform: rotate(1deg);   }


	100% { transform: rotate(-1deg);  }}



</style>
<g id="BACKGROUND">
	<g>
		<g>
			<rect x="0" class="st0" width="750" height="500"/>
		</g>
		<rect x="0" class="st1" width="750" height="500"/>
	</g>
</g>
<g id="OBJECTS">
		<!-- waves -->
	<path id="id1" class="st2" d="M26.55,175.29c26.02-36.68,83.84-31.04,109.14-47.97c17.53-11.73,21.68-89.59,78.78-102.29
		c57.1-12.7,114.2,36.68,138.05,29.63c23.85-7.05,52.04-32.45,75.89-24.69c23.85,7.76,59.94,21.55,80.58,24.99
		c39.35,6.56,64.78-37.97,115.86-29.15c80.16,13.85,25.46,128.31,53.65,144.53c28.19,16.22,76.59,69.05,52.02,115.61
		c-24.58,46.56-30.69,50.51-40.81,79.43s-3.17,82.29-34.98,102.75s-103.44-56.53-137.41-36.07
		c-33.97,20.46-54.21,57.14-101.19,55.02c-46.98-2.12-83.84-45.15-117.82-35.98c-33.97,9.17-89.68,19.99-132.99,25.39
		c-78.96,9.85-128.57,11.14-135.8-60.1c-7.23-71.25,24.78-96.19,15.82-137.41C41.08,259.37,3.67,207.54,26.55,175.29z"/>
		<!-- 4 etoiles -->
	<g>
			<!-- etoile 1 -->
		<path   class="st3 etoile" d="M43.41,127.04c0,0,1.74-13.28,2.41-12.07c0.67,1.21,0.54,12.07,0.54,12.07s8.58-6.03,8.31-4.29
			c-0.27,1.74-6.84,6.97-6.84,6.97s6.3,8.72,4.83,8.58c-1.48-0.13-8.31-6.84-8.31-6.84s-6.44,8.58-6.97,6.71s4.83-9.12,4.83-9.12
			s-10.86-1.48-9.52-2.28C34.02,125.97,43.41,127.04,43.41,127.04z"/>
			<!-- etoile 2 -->
		<path class="st3 etoile" d="M701.77,156.44c0,0-1.74-13.28-2.41-12.07c-0.67,1.21-0.54,12.07-0.54,12.07s-8.58-6.03-8.31-4.29
			c0.27,1.74,6.84,6.97,6.84,6.97s-6.3,8.72-4.83,8.58c1.48-0.13,8.31-6.84,8.31-6.84s6.44,8.58,6.97,6.71
			c0.54-1.88-4.83-9.12-4.83-9.12s10.86-1.48,9.52-2.28C711.15,155.36,701.77,156.44,701.77,156.44z"/>
		<path class="st3" d="M575.09,462.28c0,0-1.74-13.28-2.41-12.07c-0.67,1.21-0.54,12.07-0.54,12.07s-8.58-6.03-8.31-4.29
			c0.27,1.74,6.84,6.97,6.84,6.97s-6.3,8.72-4.83,8.58c1.48-0.13,8.31-6.84,8.31-6.84s6.44,8.58,6.97,6.71
			c0.54-1.88-4.83-9.12-4.83-9.12s10.86-1.48,9.52-2.28C584.48,461.21,575.09,462.28,575.09,462.28z"/>
			<!-- etoile 3 -->
		<path class="st3 etoile" d="M31.72,313.94c0,0-0.59-11.24,0.15-10.35c0.74,0.9,2.29,9.9,2.29,9.9s6.17-6.3,6.22-4.82
			c0.04,1.48-4.59,6.81-4.59,6.81s6.54,6.24,5.3,6.36c-1.24,0.11-7.92-4.38-7.92-4.38s-4.01,8.08-4.74,6.61
			c-0.73-1.47,2.6-8.28,2.6-8.28s-9.21,0.44-8.22-0.43S31.72,313.94,31.72,313.94z"/>
		<path   class="st3" d="M445.5,20.75c0,0-0.59-11.24,0.15-10.35c0.74,0.9,2.29,9.9,2.29,9.9s6.17-6.3,6.22-4.82
			c0.04,1.48-4.59,6.81-4.59,6.81s6.54,6.24,5.3,6.36c-1.24,0.11-7.92-4.38-7.92-4.38s-4.01,8.08-4.74,6.61
			c-0.73-1.47,2.6-8.28,2.6-8.28s-9.21,0.44-8.22-0.43C437.58,21.3,445.5,20.75,445.5,20.75z"/>
		<path  class="st3" d="M305.17,32.95c0,0,0.47-9.04-0.12-8.32c-0.59,0.72-1.84,7.96-1.84,7.96s-4.96-5.07-5-3.88
			c-0.04,1.19,3.69,5.48,3.69,5.48s-5.26,5.02-4.27,5.11c1,0.09,6.37-3.53,6.37-3.53s3.22,6.5,3.81,5.32
			c0.59-1.18-2.09-6.66-2.09-6.66s7.4,0.36,6.61-0.34C311.55,33.39,305.17,32.95,305.17,32.95z"/>
			<!-- etoile 4 -->
		<path class="st3 etoile" d="M728.59,300.3c0,0,0.47-9.04-0.12-8.32c-0.59,0.72-1.84,7.96-1.84,7.96s-4.96-5.07-5-3.88
			c-0.04,1.19,3.69,5.48,3.69,5.48s-5.26,5.02-4.27,5.11c1,0.09,6.37-3.52,6.37-3.52s3.22,6.5,3.81,5.32
			c0.59-1.18-2.09-6.66-2.09-6.66s7.4,0.36,6.61-0.34C734.97,300.74,728.59,300.3,728.59,300.3z"/>
		<path class="st3" d="M287.33,467.27c0,0-0.59-11.24,0.15-10.35c0.74,0.9,2.29,9.9,2.29,9.9s6.17-6.3,6.22-4.82
			c0.04,1.48-4.59,6.81-4.59,6.81s6.54,6.24,5.3,6.36c-1.24,0.11-7.92-4.38-7.92-4.38s-4.01,8.08-4.74,6.61
			c-0.73-1.47,2.6-8.28,2.6-8.28s-9.21,0.44-8.22-0.43C279.41,467.81,287.33,467.27,287.33,467.27z"/>
	</g>
		<!-- peche -->
	<g>
		<path class="st0" d="M531.86,59.33c3.92-9.19,12.54-5.13,12.54-5.13s3.93-6.35,9.91-1.97s7.84,15.88-5.23,21.55
			C536,79.46,527.93,68.51,531.86,59.33z"/>
		<path class="st4" d="M531.86,59.33c3.92-9.19,12.54-5.13,12.54-5.13s3.93-6.35,9.91-1.97s7.84,15.88-5.23,21.55
			C536,79.46,527.93,68.51,531.86,59.33z"/>
		<path class="st5" d="M551.59,53.93c3.17-0.16,5.95,6.45,2.05,6.58C549.73,60.65,548.42,54.09,551.59,53.93z"/>
		<path class="st6" d="M547.79,53.32c0,0,0.76,5.67-7.48,2.49C540.31,55.81,546.41,56.71,547.79,53.32z"/>
		<path class="st7" d="M531.76,68.63c2.27,5.42,8.71,8.89,17.31,5.15c8.48-3.68,10.67-9.81,9.53-14.86
			C552.56,73.75,539.64,71.64,531.76,68.63z"/>
		<g>
			<path class="st0" d="M503.53,42.81c9.25-3.76,12.51,5.19,12.51,5.19s7.26-1.74,8.42,5.58c1.16,7.32-5.61,16.8-18.89,11.62
				S494.27,46.57,503.53,42.81z"/>
			<path class="st8" d="M503.53,42.81c9.25-3.76,12.51,5.19,12.51,5.19s7.26-1.74,8.42,5.58c1.16,7.32-5.61,16.8-18.89,11.62
				S494.27,46.57,503.53,42.81z"/>
			<path class="st6" d="M512.24,44.78c0,0,1.12,6.83,7.96,4.55C520.2,49.34,515.45,49.26,512.24,44.78z"/>
			<path class="st5" d="M507.34,45c5.5,2.62-1.42,7.42-5.12,5.37C498.52,48.32,501.84,42.38,507.34,45z"/>
			<path class="st6" d="M515.04,47.71c0,0,13.79-19.29,21.12-22.16c0,0-4.21-5.54-4-6.44c0.21-0.9,1.32-1.6,1.32-1.6
				s9.84,13.06,13.69,14.53c0,0-0.78,1.72-1.69,1.51c-0.9-0.21-7.33-5.96-7.33-5.96s7.68,26.12,8.07,27.74l-1.52,0.79l-8.74-28.05
				c0,0-14.5,11.6-19.65,20.69C516.32,48.77,514.95,48.33,515.04,47.71z"/>
			<path class="st7" d="M523.8,59.37l0.03-0.17c-15.4,11.51-23.66,0.11-27.38-8.44c-1.33,5.2,1.12,11.32,9.12,14.44
				C515.43,69.04,521.7,64.8,523.8,59.37z"/>
		</g>
	</g>
		<!-- noeuds -->
	<g>
		<path class="st0" d="M239.61,47.34c0,0,11.03-19.49,18.54-16.74c7.51,2.75,5.64,16.96,6.04,19.27c0.4,2.3,5.05,10.08,0.95,13.7
			c-4.09,3.62-22.9-7.24-22.9-7.24L239.61,47.34z"/>
		<path class="st7" d="M239.61,47.34c0,0,11.03-19.49,18.54-16.74c7.51,2.75,5.64,16.96,6.04,19.27c0.4,2.3,5.05,10.08,0.95,13.7
			c-4.09,3.62-22.9-7.24-22.9-7.24L239.61,47.34z"/>
		<path class="st9" d="M242.61,50.22c0,0,11.44-5.81,10.39-2.98c-1.05,2.83-10.06,4.09-10.06,4.09s10.2,2.9,7.22,4.28
			c-2.99,1.38-9.01-3.45-9.01-3.45L242.61,50.22z"/>
		<path class="st9" d="M241.68,49.38c0,0,7.3-9.7,8.56-7.74S241.57,50.7,241.68,49.38z"/>
		<path class="st0" d="M235.89,48c0,0-15.17-14.59-20.93-11.15c-5.76,3.44-0.58,15.4-1.64,17.21c-1.07,1.81-1.93,17.38,5.55,15.84
			c7.49-1.54,18.53-13.81,18.53-13.81L235.89,48z"/>
		<path class="st7" d="M235.89,48c0,0-15.17-14.59-20.93-11.15c-5.76,3.44-0.58,15.4-1.64,17.21c-1.07,1.81-1.93,17.38,5.55,15.84
			c7.49-1.54,18.53-13.81,18.53-13.81L235.89,48z"/>
		<path class="st9" d="M233.31,49.42c0,0-9.54-7.32-9.07-4.92C224.72,46.9,233.31,49.42,233.31,49.42z"/>
		<path class="st9" d="M234.01,52.83c0,0-11.81-2.14-10.12-0.27C225.58,54.42,234.01,52.83,234.01,52.83z"/>
		<path class="st9" d="M235.02,54.53c0,0-10.55,5.73-8.44,6.38C228.69,61.56,235.02,54.53,235.02,54.53z"/>
		<path class="st0" d="M232.24,47.45c2.45-3.42,8.35-4.01,10.11-1.74s3.55,9.22,1.94,10.77c-1.61,1.55-7.84,3.9-9.65,2.83
			C232.82,58.24,229.78,50.87,232.24,47.45z"/>
	</g>
		<!-- guitare -->
	<g id="guitare">
		<g>
			<polygon class="st10" points="343.12,36.32 350.38,24.05 374.75,44.08 368.88,51.77 			"/>
			<path class="st11" d="M385.69,31.62c13.7,1.02,11.13,20.52,18.75,19.85c7.61-0.66,23.53-2.23,33.5,11.65
				c12.3,17.12-8.81,50.62-33.29,46.24s-17.34-28.06-24.11-29.75c-6.77-1.68-17.43-1.86-21.82-13.08
				C354.34,55.31,372,30.6,385.69,31.62z"/>
			<path class="st12" d="M361.66,64.71c7.07,7.31,18.83,3.96,23.47,10.27c4.64,6.31,1,20.55,11.38,26.69
				c8,4.74,22.92,4.46,34.59-2.41c9.76-10.36,14.07-26.08,6.84-36.15c-9.97-13.88-25.89-12.31-33.5-11.65
				c-7.61,0.66-5.05-18.84-18.75-19.85c-8.27-0.61-17.97,8.14-23.4,17.65C359.83,55.11,358.44,61.38,361.66,64.71z"/>
			<path class="st10" d="M389.18,50.98c9.66,4.7,3.17,19.3-7.49,13.44C371.02,58.57,379.52,46.28,389.18,50.98z"/>
			<polygon class="st10" points="412.8,84.11 420,70.79 424.17,73.24 416.72,85.97 			"/>
			<path class="st11" d="M352.31,25.49c0,0-6.44,13.88-7.95,12.76c-1.51-1.11-19.44-8.28-19.42-10.74
				c0.02-2.46,12.43-17.28,15.65-16.7C343.8,11.39,352.31,25.49,352.31,25.49z"/>
			<line class="st13" x1="343.49" y1="25.96" x2="420.01" y2="76.97"/>
			<line class="st13" x1="341.16" y1="19.01" x2="421.14" y2="75"/>
			<line class="st13" x1="340.82" y1="29.71" x2="418.68" y2="79.82"/>
			<line class="st13" x1="331.85" y1="27.49" x2="417.15" y2="82.76"/>
		</g>
		<path class="st10" d="M334.33,24.58c1.81,1.22,1.36,3.99-1.62,3.41C329.73,27.42,331.89,22.94,334.33,24.58z"/>
		<path class="st10" d="M340.4,28.36c1.81,1.22,1.36,3.99-1.62,3.41C335.8,31.2,337.96,26.72,340.4,28.36z"/>
		<path class="st10" d="M340.67,18.28c1.81,1.22,1.36,3.99-1.62,3.41C336.08,21.11,338.24,16.64,340.67,18.28z"/>
		<path class="st10" d="M344.66,23.99c1.81,1.22,1.36,3.99-1.62,3.41C340.06,26.83,342.22,22.35,344.66,23.99z"/>
	</g>
		<!-- jouets a vents -->
	<g>
		<g>
			<path class="st0" d="M522.97,417.99l-7.56,52.11c-0.16,1.05,0.51,2.05,1.55,2.29l0,0c1.16,0.27,2.3-0.51,2.47-1.69l6.92-52.1
				L522.97,417.99z"/>
			<path class="st14" d="M522.97,417.99l-7.56,52.11c-0.16,1.05,0.51,2.05,1.55,2.29l0,0c1.16,0.27,2.3-0.51,2.47-1.69l6.92-52.1
				L522.97,417.99z"/>
		</g>
		<g id="fleur">
			<g>
				<path class="st0" d="M540.75,403.79c0,0,4.7,15.57,5,18.81c0.29,3.23-12.34,21.74-13.81,20.28c-1.47-1.47-7.05-35.26-7.05-35.26
					L540.75,403.79z"/>
				<path class="st11" d="M525.08,408.81c1.01,6.02,5.55,32.76,6.85,34.06c1.32,1.32,11.71-13.58,13.54-18.9
					C540.49,419.69,531.61,412.4,525.08,408.81z"/>
			</g>
			<g>
				<path class="st0" d="M522.31,391.08c0,0,15.92-3.35,19.17-3.36c3.25-0.02,20.6,14.16,19.01,15.5c-1.59,1.34-35.74,4-35.74,4
					L522.31,391.08z"/>
				<path class="st15" d="M522.31,391.08c0,0,15.92-3.35,19.17-3.36c3.25-0.02,20.6,14.16,19.01,15.5c-1.59,1.34-35.74,4-35.74,4
					L522.31,391.08z"/>
				<path class="st11" d="M525.97,407.13c6.08-0.49,33.11-2.72,34.52-3.9c1.43-1.21-12.52-12.83-17.67-15.11
					C538.14,392.71,530.11,400.93,525.97,407.13z"/>
				<path class="st16" d="M525.97,407.13c6.08-0.49,33.11-2.72,34.52-3.9c1.43-1.21-12.52-12.83-17.67-15.11
					C538.14,392.71,530.11,400.93,525.97,407.13z"/>
			</g>
			<g>
				<path class="st0" d="M509.65,411.33c0,0-4.7-15.57-5-18.81c-0.29-3.23,12.34-21.74,13.81-20.28c1.47,1.47,7.05,35.26,7.05,35.26
					L509.65,411.33z"/>
				<path class="st11" d="M525.32,406.31c-1.01-6.02-5.55-32.76-6.85-34.06c-1.32-1.32-11.71,13.58-13.54,18.9
					C509.91,395.42,518.79,402.71,525.32,406.31z"/>
			</g>
			<g>
				<path class="st0" d="M524.91,407.74l-0.04-0.18c0,0-33.94,4.62-35.45,6.05c-1.51,1.43,16.64,14.58,19.88,14.38
					c2.88-0.18,15.57-3.55,18.38-4.31C526.29,416.04,525.08,408.79,524.91,407.74z"/>
				<path class="st15" d="M524.91,407.74l-0.04-0.18c0,0-33.94,4.62-35.45,6.05c-1.51,1.43,16.64,14.58,19.88,14.38
					c2.88-0.18,15.57-3.55,18.38-4.31C526.29,416.04,525.08,408.79,524.91,407.74z"/>
				<path class="st11" d="M523.66,407.73c-6.05,0.84-32.9,4.62-34.24,5.88c-1.36,1.29,13.24,12.09,18.51,14.07
					C512.34,422.82,519.88,414.15,523.66,407.73z"/>
				<path class="st16" d="M523.66,407.73c-6.05,0.84-32.9,4.62-34.24,5.88c-1.36,1.29,13.24,12.09,18.51,14.07
					C512.34,422.82,519.88,414.15,523.66,407.73z"/>
			</g>
			<path class="st10" d="M524.65,404.9c3.5-0.14,3.67,4.37,0.52,5.18C522.03,410.9,520.17,405.08,524.65,404.9z"/>
		</g>
	</g>
		<!-- courone sur fille -->
	<path class="st17" d="M707.33,357.55c0,0,7.47-18.15,8.34-16.98c0.87,1.17,2.69,7.21,2.69,7.21s8.02-10.57,8.69-9.01
		c0.67,1.56-1.8,11.76-1.8,11.76s6.24-3.67,6.14-2.5c-0.1,1.17-8.53,16.4-9.21,16.79C721.49,365.19,713.51,366.52,707.33,357.55z"/>
		<!-- coeur -->
	<g>
		<g>
			<path class="st0" d="M176.52,409.56c5.87-8.98,15.54-2.42,15.54-2.42s2.8-10.43,10.01-6.56c14.16,7.6-1.04,29.01-6.22,29.01
				C190.68,429.59,170.65,418.54,176.52,409.56z"/>
			<path class="st18" d="M176.52,409.56c5.87-8.98,15.54-2.42,15.54-2.42s2.8-10.43,10.01-6.56c14.16,7.6-1.04,29.01-6.22,29.01
				C190.68,429.59,170.65,418.54,176.52,409.56z"/>
		</g>
		<path class="st0" d="M212.05,445.95c3.11-2.08,5.52,0.65,5.95,2.03c0,0,2.12-3.36,4.88-0.64c2.76,2.71-6.72,9.75-6.72,9.75
			S208.94,448.03,212.05,445.95z"/>
		<g>
			<path class="st0" d="M238.71,434.76c0,0-13.93-14.91-8.56-23.22c5.38-8.31,12.47-0.73,13.2,1.22c0,0,6.35-6.63,12.53,0.9
				C261.51,420.5,243.6,434.76,238.71,434.76z"/>
			<path class="st19" d="M238.71,434.76c0,0-13.93-14.91-8.56-23.22c5.38-8.31,12.47-0.73,13.2,1.22c0,0,6.35-6.63,12.53,0.9
				C261.51,420.5,243.6,434.76,238.71,434.76z"/>
		</g>
	</g>
		<!-- nounours -->
	<g id="nounours">
		<path class="st10" d="M703.51,236.62c0,0,23.52,10.31,26.32,25.93c1.18,6.6-7.24,13.77-9.06,12.73
			c-1.83-1.04-17.42-30.4-17.42-30.4L703.51,236.62z"/>
		<path class="st20" d="M703.57,237.66c0,0,19.94,16.9,23.42,27.02"/>
		<path class="st10" d="M671.01,240.22c0,0-17.58,29.38-14.71,35.45c5.07,10.69,18.61,10.25,19.54,8.37
			c0.93-1.88-0.07-37.28-0.07-37.28L671.01,240.22z"/>
		<path class="st20" d="M658.27,275.43c0,0,6.21-22.22,11.68-29.53"/>
		<g class="st21">
			<path class="st6" d="M675.84,249.33c-0.04-1.61-0.07-2.58-0.07-2.58l-4.76-6.53c0,0-1.62,2.71-3.79,6.64
				C669.79,248.11,672.68,248.97,675.84,249.33z"/>
		</g>
		<path class="st22" d="M706.36,238.02c-1.75-0.91-2.86-1.4-2.86-1.4l-0.09,4.36C704.52,240.04,705.5,239.06,706.36,238.02z"/>
		<path class="st10" d="M668.35,266.59c0,0-6.64-27.05,16.71-32.85c26.17-6.5,41.07,36.23,18.34,47.96
			C685.06,291.17,671.28,280.72,668.35,266.59z"/>
		<path class="st23" d="M668.35,266.59c0,0-6.64-27.05,16.71-32.85c26.17-6.5,41.07,36.23,18.34,47.96
			C685.06,291.17,671.28,280.72,668.35,266.59z"/>
		<path class="st7" d="M669.13,247.7c7.33,2.83,16.85,2.62,27.79-2.56c3.36-1.59,6.1-3.57,8.26-5.82
			c-5.14-4.94-12.1-7.57-20.12-5.58C675.78,236.05,671.24,241.71,669.13,247.7z"/>
		<path class="st10" d="M677.55,271.69c0,0-3.51-13.29,12.22-17.09c17.62-4.25,26.41,18.15,11,25.43
			C688.34,285.9,679.29,279.97,677.55,271.69z"/>
		<path class="st24" d="M677.55,271.69c0,0-3.51-13.29,12.22-17.09c17.62-4.25,26.41,18.15,11,25.43
			C688.34,285.9,679.29,279.97,677.55,271.69z"/>
		<line class="st20" x1="687.29" y1="242.89" x2="695.09" y2="282.83"/>
		<g>
			<g>
				<path class="st10" d="M694.43,203.67c0,0-3.69-12.48,7.34-12.14c16.13,0.51,12.52,17.8,1.01,19.98L694.43,203.67z"/>
				<path class="st4" d="M694.43,203.67c0,0-3.69-12.48,7.34-12.14c16.13,0.51,12.52,17.8,1.01,19.98L694.43,203.67z"/>
				<path class="st10" d="M698.02,202.9c0,0-2.01-6.8,4-6.61c8.78,0.28,6.82,9.69,0.55,10.88L698.02,202.9z"/>
			</g>
			<g>
				<path class="st10" d="M665.5,209.32c0,0-1.28-12.96-11.37-8.48c-14.75,6.54-4.9,21.21,6.58,18.9L665.5,209.32z"/>
				<path class="st4" d="M665.5,209.32c0,0-1.28-12.96-11.37-8.48c-14.75,6.54-4.9,21.21,6.58,18.9L665.5,209.32z"/>
				<path class="st10" d="M661.89,209.96c0,0-0.7-7.05-6.19-4.62c-8.03,3.56-2.67,11.55,3.58,10.29L661.89,209.96z"/>
			</g>
			<path class="st10" d="M654.75,228.67c0,0-6.28-23.77,21.85-30.56c31.52-7.61,47.23,32.45,19.68,45.48
				C674.04,254.09,657.85,243.47,654.75,228.67z"/>
			<path class="st25" d="M654.75,228.67c0,0-6.28-23.77,21.85-30.56c31.52-7.61,47.23,32.45,19.68,45.48
				C674.04,254.09,657.85,243.47,654.75,228.67z"/>
			<line class="st20" x1="681.95" y1="218.5" x2="678.55" y2="201.1"/>
			<path class="st25" d="M675.53,199.7c1,0.25,1.88,2.48,0.75,2.89C675.16,203,674.53,199.46,675.53,199.7z"/>
			<path class="st25" d="M676.82,199.2c0.96-0.25,2.67,2.01,1.71,2.58C677.56,202.34,675.86,199.45,676.82,199.2z"/>
			<path class="st25" d="M678.67,198.96c1.34-0.26,3.81,1.72,2.7,2.51C680.26,202.26,677.33,199.22,678.67,198.96z"/>
			<path class="st6" d="M693.93,221.1l-0.23,0.04c-1.47,0.29-2.9-0.67-3.19-2.14l-0.47-2.39c-0.29-1.47,0.67-2.9,2.14-3.19
				l0.23-0.04c1.47-0.29,2.9,0.67,3.19,2.14l0.47,2.39C696.36,219.39,695.4,220.81,693.93,221.1z"/>
			<path class="st6" d="M672.14,226.59l-0.23,0.04c-1.47,0.29-2.9-0.67-3.19-2.14l-0.47-2.39c-0.29-1.47,0.67-2.9,2.14-3.19
				l0.23-0.04c1.47-0.29,2.9,0.67,3.19,2.14l0.47,2.39C674.57,224.88,673.61,226.31,672.14,226.59z"/>
			<path class="st10" d="M671.06,233.74c0,0-3.13-11.85,10.89-15.24c15.72-3.79,23.55,16.18,9.81,22.68
				C680.68,246.42,672.6,241.12,671.06,233.74z"/>
			<path class="st24" d="M671.06,233.74c0,0-3.13-11.85,10.89-15.24c15.72-3.79,23.55,16.18,9.81,22.68
				C680.68,246.42,672.6,241.12,671.06,233.74z"/>
			<line class="st26" x1="683.28" y1="222.26" x2="684.57" y2="228.87"/>
			<polyline class="st26" points="682.1,231.91 684.58,227.84 688.06,230.44 			"/>
			<path class="st6" d="M687.05,219.44c0.32,1.65-1.38,3.37-3.79,3.84c-2.42,0.47-4.64-0.48-4.96-2.13
				c-0.32-1.65,1.38-3.37,3.79-3.84C684.51,216.84,686.73,217.79,687.05,219.44z"/>
		</g>
		<g>
			<g>
				<path class="st10" d="M668.36,272.01c-9.82,7.9,2.8,26.82,14.37,18.56C693.54,282.85,678.18,264.11,668.36,272.01z"/>
				<path class="st27" d="M668.36,272.01c-9.82,7.9,2.8,26.82,14.37,18.56C693.54,282.85,678.18,264.11,668.36,272.01z"/>
				<path class="st10" d="M670.4,276.41c-6.15,4.94,1.75,16.8,9,11.62C686.17,283.2,676.55,271.47,670.4,276.41z"/>
				<path class="st23" d="M670.4,276.41c-6.15,4.94,1.75,16.8,9,11.62C686.17,283.2,676.55,271.47,670.4,276.41z"/>
			</g>
			<g>
				<path class="st10" d="M715.7,262.76c12.07,3.62,7.5,25.9-6.33,22.61C696.45,282.28,703.63,259.14,715.7,262.76z"/>
				<path class="st27" d="M715.7,262.76c12.07,3.62,7.5,25.9-6.33,22.61C696.45,282.28,703.63,259.14,715.7,262.76z"/>
				<path class="st10" d="M715.47,267.61c7.56,2.27,4.7,16.22-3.96,14.15C703.41,279.84,707.91,265.34,715.47,267.61z"/>
				<path class="st23" d="M715.47,267.61c7.56,2.27,4.7,16.22-3.96,14.15C703.41,279.84,707.91,265.34,715.47,267.61z"/>
			</g>
		</g>
	</g>
		<!-- licorne -->
	<g id="licorne">
		<g>
			<g>
				<path class="st3" d="M40.95,221.7c0,0-24.37,7.46-24.41,12.32c-0.05,4.86,2.52,9.84,6.13,9.96c3.61,0.12,26.27-6.25,26.27-6.25"
					/>
				<path class="st0" d="M22.67,243.98c0.85,0.03,2.77-0.31,5.19-0.83c-0.13-3.83-3.27-10.72-5.09-14.42
					c-3.56,1.81-6.22,3.69-6.24,5.29C16.49,238.89,19.06,243.86,22.67,243.98z"/>
				<path class="st7" d="M40.95,221.7c0,0-24.37,7.46-24.41,12.32c-0.05,4.86,2.52,9.84,6.13,9.96c3.61,0.12,26.27-6.25,26.27-6.25"
					/>
			</g>
			<g>
				<path class="st3" d="M74.88,246.81c0,0,7.48,24.36,12.34,24.4c4.86,0.04,9.84-2.53,9.95-6.14c0.12-3.61-6.27-26.26-6.27-26.26"
					/>
				<path class="st0" d="M97.18,265.08c0.03-0.85-0.31-2.77-0.84-5.19c-3.83,0.13-10.72,3.28-14.42,5.1c1.81,3.56,3.7,6.22,5.3,6.23
					C92.08,271.26,97.06,268.68,97.18,265.08z"/>
				<path class="st7" d="M74.88,246.81c0,0,7.48,24.36,12.34,24.4c4.86,0.04,9.84-2.53,9.95-6.14c0.12-3.61-6.27-26.26-6.27-26.26"
					/>
			</g>
			<path class="st0" d="M37.63,185.01c0,0-8.67-4.26-7.4-10.48c1.27-6.23,22.46-14.1,37.24-4.32c13.64,9.02,12.9,34.51,0.71,42.23
				L37.63,185.01z"/>
			<path class="st0" d="M111.58,206.06c14.33,1.79,16.98,23.33,19.47,24.22s6.4-4.23,6.32-1.95c-0.08,2.27-8.36,24.06-31.99,9.87
				C81.76,224,97.25,204.27,111.58,206.06z"/>
			<path class="st19" d="M135.35,233.37c-2.56,0.77-5.64,1.33-8.45,0.88c-6.38-1.03-6.14-18.28-14.68-20.86
				c-8.54-2.57-16.82,8.37-16.82,8.37l-1.81,2.8c1.11,4.55,4.66,9.34,11.8,13.63C122.61,248.53,131.67,239.76,135.35,233.37z"/>
			<path class="st19" d="M105.39,238.19c11.35,6.82,19.16,5.33,24.22,1.69c-3.9,0.14-8-0.1-10.17-1.4
				c-4.89-2.92-6.64-14.54-11.53-17.46c-4.89-2.92-14.31,3.54-14.31,3.54C94.7,229.11,98.25,233.91,105.39,238.19z"/>
			<path class="st17" d="M38.75,182.88c0,0-8.14-19.6-5.29-19.4c2.85,0.2,12.98,13.84,12.16,15.02
				C44.8,179.68,38.75,182.88,38.75,182.88z"/>
			<path class="st3" d="M34.86,190.17c0,0,1.35-15.95,20.67-12.38c19.31,3.57,15.32,25.85,12.53,35.77c0,0,23-8.85,32.85,1.76
				c9.85,10.61,5.74,53.09-47.77,30.11c0,0-13.5-7.72-14.63-16.16c-1.14-8.44,2.58-20.08,2.58-20.08s-8.01,3.7-13.71-2.04
				C21.68,201.4,32.44,190.81,34.86,190.17z"/>
			<path class="st0" d="M39.72,209.68c1.39-7.94-4.19-12.83-9.57-15.63c-3.33,3.77-6.41,9.42-2.77,13.09
				C31.64,211.45,37.19,210.46,39.72,209.68z"/>
			<path class="st28" d="M39.72,209.68c1.39-7.94-4.19-12.83-9.57-15.63c-3.33,3.77-6.41,9.42-2.77,13.09
				C31.64,211.45,37.19,210.46,39.72,209.68z"/>
			<path class="st6" d="M49.26,197.27l-2.02-0.41c-1.34-0.28-2.21-1.59-1.94-2.93l0.96-4.7c0.28-1.34,1.59-2.21,2.93-1.94l2.02,0.41
				c1.34,0.28,2.21,1.59,1.94,2.93l-0.96,4.7C51.92,196.68,50.61,197.55,49.26,197.27z"/>
			<path class="st3" d="M52.58,181c0,0-0.88-16.21,7.18-15.52c8.06,0.7-0.33,16.54-2.03,18.29"/>
			<g>
				<path class="st0" d="M58.71,169.45c3.38,1.08,0.1,10.82-2.74,10.88C53.13,180.4,55.33,168.38,58.71,169.45z"/>
				<path class="st28" d="M58.71,169.45c3.38,1.08,0.1,10.82-2.74,10.88C53.13,180.4,55.33,168.38,58.71,169.45z"/>
			</g>
			<path class="st3" d="M41.68,231.45c0,0-17.1,18.26-16.13,22.85c0.97,4.59,7.69,10.93,11.99,7.61s14.95-20.8,14.95-20.8"/>
			<path class="st0" d="M28.56,247.42c-1.98,2.94-3.29,5.51-3,6.88c0.97,4.59,7.69,10.93,11.99,7.61c1.09-0.84,2.59-2.59,4.21-4.73
				C38.93,253.49,32.31,249.5,28.56,247.42z"/>
			<path class="st19" d="M28.56,247.42c-1.98,2.94-3.29,5.51-3,6.88c0.97,4.59,7.69,10.93,11.99,7.61c1.09-0.84,2.59-2.59,4.21-4.73
				C38.93,253.49,32.31,249.5,28.56,247.42z"/>
			<path class="st3" d="M87.52,247.13c0,0,12.21,22.37,16.98,21.44c4.77-0.93,9.13-4.45,8.52-8.01
				c-0.61-3.56-11.41-24.47-11.41-24.47"/>
		</g>
		<path class="st0" d="M113.02,260.56c-0.15-0.85-0.88-2.7-1.9-5.01c-5.22,0.53-10.25,4.09-13.7,7.16c2.71,3.54,5.37,6.2,7.08,5.86
			C109.27,267.64,113.63,264.12,113.02,260.56z"/>
		<path class="st19" d="M113.02,260.56c-0.15-0.85-0.88-2.7-1.9-5.01c-5.22,0.53-10.25,4.09-13.7,7.16c2.71,3.54,5.37,6.2,7.08,5.86
			C109.27,267.64,113.63,264.12,113.02,260.56z"/>
	</g>
		<!-- arc en ciel -->
	<g>
		<g>
			<path class="st0" d="M363.52,438.82c0,0-7.28-38.19,27.97-51.71c35.26-13.52,52.92,32.15,53.52,47.87l-22.76,1.33
				c0,0-3.6-27.7-19.36-23.28c-12.57,3.53-9.85,26.18-10.35,26.54C392.05,439.93,363.52,438.82,363.52,438.82z"/>
			<path class="st29" d="M363.52,438.82c0,0-7.28-38.19,27.97-51.71c35.26-13.52,52.92,32.15,53.52,47.87l-22.76,1.33
				c0,0-3.6-27.7-19.36-23.28c-12.57,3.53-9.85,26.18-10.35,26.54C392.05,439.93,363.52,438.82,363.52,438.82z"/>
			<path class="st0" d="M436.22,435.5c-4.87-24.19-16.23-51.39-40.19-43.79c-20.06,6.36-24.08,35.44-24.64,47.41
				c8.49,0.3,20.84,0.7,21.17,0.46c0.5-0.36-2.22-23.01,10.35-26.54c15.76-4.42,19.36,23.28,19.36,23.28L436.22,435.5z"/>
			<path class="st30" d="M436.22,435.5c-4.87-24.19-16.23-51.39-40.19-43.79c-20.06,6.36-24.08,35.44-24.64,47.41
				c8.49,0.3,20.84,0.7,21.17,0.46c0.5-0.36-2.22-23.01,10.35-26.54c15.76-4.42,19.36,23.28,19.36,23.28L436.22,435.5z"/>
			<path class="st0" d="M428.87,435.93c-2.87-21.8-12.86-38.43-29.88-32.97c-14.39,4.61-17.01,25.94-17.42,36.49
				c5.78,0.17,10.77,0.27,10.97,0.13c0.5-0.36-2.22-23.01,10.35-26.54c15.76-4.42,19.36,23.28,19.36,23.28L428.87,435.93z"/>
		</g>
		<path class="st0" d="M352.49,446.22c0,0-5.06-3.32-1.74-8.76c3.31-5.44,7.53-2.25,7.53-2.25s1.36-7.31,8.67-8.86
			c7.31-1.55,11.78,6.15,11.78,6.15s9.29-5.12,15.55,0.47c6.26,5.59,1.85,13.35,1.85,13.35s3.3,6.58-2.82,13.31
			c-5.56,6.11-16.92-0.13-16.92-0.13s-5.49,7.18-13.89,4.85c-8.4-2.32-7.86-8.62-7.86-8.62S345.43,451.9,352.49,446.22z"/>
		<path class="st31" d="M352.49,446.22c0,0-5.06-3.32-1.74-8.76c3.31-5.44,7.53-2.25,7.53-2.25s1.36-7.31,8.67-8.86
			c7.31-1.55,11.78,6.15,11.78,6.15s9.29-5.12,15.55,0.47c6.26,5.59,1.85,13.35,1.85,13.35s3.3,6.58-2.82,13.31
			c-5.56,6.11-16.92-0.13-16.92-0.13s-5.49,7.18-13.89,4.85c-8.4-2.32-7.86-8.62-7.86-8.62S345.43,451.9,352.49,446.22z"/>
		<g>
			<path class="st0" d="M413.7,443.42c0,0-7.37-4.33-3.02-10.96c4.35-6.63,11.99-2.99,11.99-2.99s1.73-10.31,12.98-11.52
				s18.4,10.6,17.5,16.78c0,0,6.42-0.54,8.9,5.77c2.48,6.31-0.44,9.65-8.54,11.38c0,0-10,12.16-24.37,10.05
				c-14.37-2.12-11.95-12.17-11.95-12.17s-5.56,0.69-7.26-2.4S413.7,443.42,413.7,443.42z"/>
			<path class="st31" d="M413.7,443.42c0,0-7.37-4.33-3.02-10.96c4.35-6.63,11.99-2.99,11.99-2.99s1.73-10.31,12.98-11.52
				s18.4,10.6,17.5,16.78c0,0,6.42-0.54,8.9,5.77c2.48,6.31-0.44,9.65-8.54,11.38c0,0-10,12.16-24.37,10.05
				c-14.37-2.12-11.95-12.17-11.95-12.17s-5.56,0.69-7.26-2.4S413.7,443.42,413.7,443.42z"/>
		</g>
	</g>
		<!-- fille sousou rouge -->
	<g id="fille_s_nounours">
		<g>
			<g>
				<path class="st6" d="M709.51,398.59c0,0,5.63-22.88,24.74-14.05c19.12,8.83,18.57,51.17-17.47,39.47L709.51,398.59z"/>
				<path class="st7" d="M709.51,398.59c0,0,5.63-22.88,24.74-14.05c19.12,8.83,18.57,51.17-17.47,39.47L709.51,398.59z"/>
				<path class="st0" d="M707.01,392.21c0,0,2.31-5.14,6.39-3.5c4.08,1.63,11.22,35.87,6.47,41.01c-4.76,5.14-10.37,1.48-10.37,1.48
					L707.01,392.21z"/>
				<path class="st4" d="M728.76,386.89c2.55,3.89-5.29,8.15-9.62,4.9C716.08,389.5,726.21,383,728.76,386.89z"/>
				<path class="st4" d="M730.09,394.58c1.54,3.19-4.73,5.82-7.86,3.41C719.09,395.57,728.55,391.4,730.09,394.58z"/>
			</g>
			<g>
				<path class="st6" d="M629.44,375.82c0,0,5.82-22.83-15.2-24.05c-21.02-1.22-40.49,36.38-3.19,43.04L629.44,375.82z"/>
				<path class="st7" d="M629.44,375.82c0,0,5.82-22.83-15.2-24.05c-21.02-1.22-40.49,36.38-3.19,43.04L629.44,375.82z"/>
				<path class="st0" d="M606.13,395.73c0,0-4.13,1.01-3.65-3.36c0.48-4.37,17.39-27.89,28.77-27.7c5.74,0.1,7.54,8.21,7.54,8.21
					L606.13,395.73z"/>
				<path class="st4" d="M617.97,356.44c-4.08,2.23,0.82,9.69,6.18,8.86C627.93,364.71,622.05,354.21,617.97,356.44z"/>
				<path class="st4" d="M613.18,362.6c-2.86,2.09,1.43,7.37,5.33,6.71C622.41,368.64,616.04,360.51,613.18,362.6z"/>
			</g>
		</g>
		<g>
			<path class="st32" d="M591.98,425.5c-2.23,7.99,1.91,16.13,9.24,18.17c7.33,2.04,15.07-2.79,17.3-10.78
				c2.23-7.99-1.91-16.13-9.24-18.17C601.95,412.68,594.21,417.51,591.98,425.5z"/>
			<path class="st33" d="M595.29,426.47c-1.31,4.71,1.13,9.51,5.45,10.71c4.32,1.2,8.89-1.64,10.2-6.36
				c1.31-4.71-1.13-9.51-5.45-10.71C601.17,418.91,596.61,421.75,595.29,426.47z"/>
			<path class="st32" d="M649,394.31l18.39,6.4c24.21,4.19,27.02,27.2,21.58,46.72l-1.63,5.84c0.86,21.92-25.67,30.94-45.19,25.5
				l-15.17-4.22c-19.52-5.44-30.94-25.67-25.5-45.19l1.63-5.84C608.55,404.01,629.48,388.88,649,394.31z"/>
			<path class="st6" d="M672.98,439.47c0.53,4.02-15.37,4.24-16.64,2.75C653.84,439.27,672.61,436.65,672.98,439.47z"/>
			<path class="st6" d="M622.34,424.27c-3,3.52,12.06,13.62,14.2,12.98C640.76,435.99,624.45,421.81,622.34,424.27z"/>
			<g>
				<path class="st6" d="M635.21,443.42c7.21,0.04,7.03,5.38,9.97,5.13c2.94-0.24,6.64-4.34,10.36-0.91
					c3.73,3.42,0.84,18.7-17.54,13.45C625.15,457.42,628,443.38,635.21,443.42z"/>
				<path class="st34" d="M656.85,453.14c-1.9-0.75-3.98-1.24-6.18-1.38c-7.18-0.47-13.56,2.73-16.5,7.68
					c1.08,0.66,2.35,1.23,3.83,1.65C650.8,464.75,656.08,458.46,656.85,453.14z"/>
				<path class="st35" d="M632.59,444.11c1,4.92,5.89,8.86,12.03,9.26c4.84,0.32,9.19-1.65,11.62-4.82
					c-0.2-0.35-0.42-0.66-0.69-0.91c-3.73-3.42-7.43,0.67-10.36,0.91c-2.94,0.24-2.76-5.1-9.97-5.13
					C634.25,443.42,633.37,443.67,632.59,444.11z"/>
			</g>
			<path class="st32" d="M682.47,450.52c-2.23,7.99,1.91,16.13,9.24,18.17c7.33,2.04,15.07-2.79,17.3-10.78
				c2.23-7.99-1.91-16.13-9.24-18.17C692.44,437.7,684.7,442.53,682.47,450.52z"/>
			<path class="st33" d="M688.57,452.11c-1.31,4.71,1.13,9.51,5.45,10.71c4.32,1.2,8.89-1.64,10.2-6.36
				c1.31-4.71-1.13-9.51-5.45-10.71C694.45,444.55,689.88,447.39,688.57,452.11z"/>
			<g>
				<path class="st6" d="M681.37,370.72c-77.94-29.69-83.26,47.25-79.39,54.81c0.36,0.71,3.83-12.24,15.41-20.9
					c0.6-0.45,1.24-0.87,1.9-1.26c-1.2,3.18-1.74,5.83-1.1,7.3c1.49,3.41,11.89-1.34,21.08-6.38c-2.13,2.96-4.11,6.74-1.8,8.31
					c2.79,1.89,25.1-7.05,25.1-7.05s-9.22,4.62-7.61,8.92c1.65,4.37,16.36,1,25.4-3.95c5.09,7.88,10.09,30.26,10.09,30.26
					c17.54-1.75,18.92,9.73,18.92,9.73C716.23,444.48,734.27,389.93,681.37,370.72z"/>
				<path class="st6" d="M703.25,448.99c0.03-0.02,0.05-0.04,0.08-0.07C703.33,448.92,703.3,448.95,703.25,448.99z"/>
			</g>
			<path class="st4" d="M646.9,368.04c2,3.53-13.32,10.24-17.58,5.83C625.06,369.46,644.89,364.51,646.9,368.04z"/>
			<path class="st4" d="M647.41,376.28c2.44,2.84-4.87,7.46-9.03,5.35C634.22,379.51,644.98,373.44,647.41,376.28z"/>
			<path class="st4" d="M704.92,398.83c4.63,1.47,7.99,11.37,2.72,12.02C702.37,411.5,700.29,397.36,704.92,398.83z"/>
			<path class="st4" d="M696.78,402.64c3.24,1.03,5.59,7.97,1.91,8.42C694.99,411.52,693.53,401.61,696.78,402.64z"/>
			<path class="st33" d="M661.11,454.02c-0.55,3.43,2.67,6.8,7.18,7.52c4.51,0.72,8.61-1.48,9.16-4.91c0.55-3.43-2.67-6.8-7.18-7.52
				C665.75,448.39,661.65,450.59,661.11,454.02z"/>
			<g>
				<g>
					<path class="st6" d="M627.93,415.46c1.45-2.23,4.33-3.61,6.96-3.57c1.35,0.02,2.58,0.13,3.71,0.9
						c1.26,0.86,2.05,2.23,2.48,3.67c0.32,1.07,2.02,0.61,1.68-0.46c-0.44-1.41-1.14-2.74-2.2-3.78c-0.95-0.93-2.11-1.52-3.32-2.02
						c-2.39-0.99-5.51-0.26-7.59,1.15c-1.28,0.87-2.27,2-3.01,3.36C626.17,415.56,627.4,416.27,627.93,415.46L627.93,415.46z"/>
				</g>
			</g>
			<g>
				<g>
					<path class="st6" d="M678.38,425.13c-0.36-3.3-2.57-6-5.54-7.4c-0.83-0.39-1.61-0.6-2.53-0.65c-0.77-0.04-1.53-0.15-2.3-0.07
						c-1.77,0.17-3.33,0.88-4.64,2.07c-0.83,0.75,0.41,2,1.23,1.23c1.01-0.93,2.28-1.54,3.66-1.62c0.68-0.04,1.34-0.02,1.97,0.24
						c0.59,0.24,1.19,0.47,1.77,0.74c2.23,1.06,4.43,3.14,4.91,5.65C677.06,426.15,678.47,425.97,678.38,425.13L678.38,425.13z"/>
				</g>
			</g>
			<path class="st33" d="M607.44,439.02c-1.04,3.32,1.65,7.11,6,8.48c4.36,1.37,8.73-0.21,9.78-3.52c1.04-3.32-1.65-7.11-6-8.48
				C612.86,434.12,608.48,435.7,607.44,439.02z"/>
			<g>
				<g>
					<path class="st6" d="M645.73,436.92c-0.47,0.66-0.96,1.31-1.4,2c0.29,0,0.57,0,0.86,0c-0.27-0.45-0.54-0.9-0.86-1.31
						c-0.16-0.21-0.32-0.41-0.48-0.61c-0.15-0.19-0.36-0.4-0.42-0.63c-0.04-0.17-0.21-0.29-0.38-0.29c-0.19,0-0.32,0.13-0.38,0.29
						c-0.22,0.56-0.33,1.2-0.43,1.8c-0.05,0.32-0.1,0.64-0.14,0.97c-0.04,0.34-0.11,0.67,0.03,0.99c0.13,0.31,0.57,0.24,0.72,0
						c0.17-0.27,0.14-0.68,0.18-0.99c0.03-0.28,0.06-0.55,0.11-0.83c0.09-0.61,0.24-1.22,0.31-1.83c-0.2,0.11-0.4,0.23-0.59,0.34
						c0.19,0.11,0.31,0.37,0.41,0.56c0.13,0.23,0.25,0.46,0.37,0.69c0.23,0.46,0.48,0.91,0.7,1.37c0.07,0.15,0.27,0.25,0.43,0.25
						c0.19,0,0.32-0.1,0.43-0.25c0.49-0.64,0.94-1.33,1.41-1.99c0.16-0.22,0.04-0.56-0.18-0.68
						C646.17,436.59,645.89,436.7,645.73,436.92L645.73,436.92z"/>
				</g>
			</g>
		</g>
	</g>
		<!-- fille sous licorne -->
	<g id="fille_s_licorne">
		<g>
			<path class="st6" d="M44.17,414.99c0,0-20.43,14.96-19.91,22.05c0.52,7.09,2,11.04,2,11.04s-3.66,1.89-2.77,5
				c0.89,3.11,3.58,4.02,3.58,4.02s-4.44,2.12-3.41,4.52c1.03,2.4,1.34,4.66,1.34,4.66s-5.04-0.57-8.55,2.46
				c-3.5,3.03-4.63,9.07-4.63,9.07l-5.54-5.81c0,0-8.49,9.54,7.86,10.88c16.35,1.34,13.46-12.81,13.79-14.58
				c0,0,10.58,3.72,10.62-0.09c0.04-3.81-0.91-10.61-0.91-10.61s2.89,2.7,6.18-1.11c3.28-3.8,5.59-20.42,5.59-20.42L44.17,414.99z"
				/>
			<path class="st11" d="M30.58,469.27c-0.53-0.64-5.49-8.94-6.92-7.66c-1.43,1.28-2.34,3.32-2.34,3.32l6.57,7.62L30.58,469.27z"/>
		</g>
		<g>
			<path class="st6" d="M111.36,404.48c0,0,25.07,3.58,27.95,10.08c2.87,6.5,3.44,10.68,3.44,10.68s4.12-0.05,4.8,3.11
				c0.68,3.16-1.27,5.24-1.27,5.24s4.91-0.22,5.14,2.38c0.22,2.6,1.01,4.74,1.01,4.74s4.18-2.88,8.7-1.86
				c4.52,1.02,8.35,5.82,8.35,5.82l2.15-7.74c0,0,11.98,4.42-1.81,13.3c-13.8,8.88-17.91-4.96-19.03-6.37c0,0-7.58,8.26-9.41,4.92
				c-1.83-3.35-4.19-9.79-4.19-9.79s-1.28,3.74-5.97,1.93c-4.69-1.81-14.55-15.38-14.55-15.38L111.36,404.48z"/>
			<path class="st11" d="M148.92,445.97c0.16-0.82,0.63-10.47,2.5-10.01c1.87,0.46,3.63,1.83,3.63,1.83l-2.21,9.82L148.92,445.97z"
				/>
		</g>
		<g>
			<path class="st32" d="M139.84,412.38c1.77,8.11-2.83,15.99-10.26,17.61c-7.43,1.62-14.89-3.64-16.66-11.75
				c-1.77-8.11,2.83-15.99,10.26-17.61C130.61,399.02,138.07,404.28,139.84,412.38z"/>
			<path class="st33" d="M136.47,413.16c1.04,4.78-1.67,9.43-6.05,10.38c-4.38,0.95-8.78-2.15-9.82-6.93
				c-1.04-4.78,1.67-9.43,6.05-10.38C131.03,405.28,135.43,408.38,136.47,413.16z"/>
			<path class="st32" d="M83.45,380.56l-18.71-0.3c-24.41,2.8-28.55,31.26-24.23,51.06l1.29,5.92
				c-2.11,21.84,23.86,32.35,43.66,28.04l15.39-3.35c19.8-4.31,41.21-20.36,28.04-43.66l-1.29-5.92
				C123.28,392.55,103.25,376.25,83.45,380.56z"/>
			<g>
				<path class="st6" d="M95.96,431.21c-7.19-0.55-7.45,4.78-10.36,4.3c-2.91-0.48-6.26-4.87-10.25-1.76
					c-4,3.11-2.37,18.57,16.37,14.85C104.84,445.99,103.15,431.76,95.96,431.21z"/>
				<path class="st34" d="M73.59,439.12c1.95-0.59,4.06-0.91,6.27-0.87c7.19,0.12,13.29,3.84,15.81,9.01
					c-1.13,0.57-2.44,1.03-3.96,1.33C78.67,451.18,73.93,444.48,73.59,439.12z"/>
				<path class="st35" d="M98.52,432.11c-1.4,4.82-6.6,8.34-12.75,8.24c-4.85-0.08-9.03-2.4-11.19-5.76
					c0.22-0.34,0.48-0.63,0.76-0.85c4-3.11,7.35,1.28,10.25,1.76c2.91,0.48,3.17-4.85,10.36-4.3
					C96.92,431.28,97.78,431.61,98.52,432.11z"/>
			</g>
			<path class="st32" d="M51.39,430.29c1.77,8.11-2.83,15.99-10.26,17.61c-7.43,1.62-14.89-3.64-16.66-11.75
				c-1.77-8.11,2.83-15.99,10.26-17.61C42.17,416.93,49.62,422.19,51.39,430.29z"/>
			<path class="st33" d="M45.21,431.53c1.04,4.78-1.67,9.43-6.05,10.39c-4.38,0.95-8.78-2.15-9.82-6.93
				c-1.04-4.78,1.67-9.43,6.05-10.38C39.77,423.65,44.17,426.75,45.21,431.53z"/>
			<g>
				<path class="st6" d="M28,433.86c-0.01-0.01-0.02-0.02-0.03-0.03C27.98,433.84,27.99,433.85,28,433.86z"/>
				<path class="st6" d="M14.46,387.52c2.87-34.01,57.97-40.75,57.97-40.75c29.44-5.68,48.07,11.19,57.35,26.46
					c12.75,20.98,10.28,46.56,0.4,48.63c-0.68,0.14-2.05-29.52-37.76-39.79c-13.05,30.74-45.69,29.12-45.69,29.12
					c25.57-8.16,23.76-20.46,28.75-29.1c-8.12,1.4-31.33,31.4-31.33,31.4s5,15.17,1.27,17.56c-3.74,2.39-6.53-12.4-6.53-12.4
					c-13.24,1.41-14.87,12.44-14.87,12.44C21.51,428.6,12.28,413.31,14.46,387.52z"/>
				<path class="st6" d="M26.17,432.06c-0.03-0.03-0.05-0.05-0.07-0.07C26.1,431.99,26.13,432.01,26.17,432.06z"/>
			</g>
			<path class="st4" d="M92.71,354.45c-1.95,3.56,13.47,10.04,17.66,5.57C114.57,355.54,94.66,350.89,92.71,354.45z"/>
			<path class="st4" d="M90.94,360.63c-2.77,2.52,3.92,8,8.31,6.42C103.64,365.46,93.71,358.11,90.94,360.63z"/>
			<path class="st4" d="M27.37,381.88c-4.71,1.21-8.62,10.9-3.4,11.85C29.18,394.68,32.07,380.68,27.37,381.88z"/>
			<path class="st4" d="M35.28,386.15c-3.3,0.85-6.04,7.63-2.38,8.3C36.55,395.11,38.57,385.31,35.28,386.15z"/>
			<path class="st33" d="M69.6,443.06c-0.05,3.48-3.79,6.24-8.36,6.17c-4.57-0.07-8.23-2.94-8.18-6.41
				c0.05-3.47,3.79-6.24,8.36-6.17C65.99,436.71,69.65,439.58,69.6,443.06z"/>
			<g>
				<g>
					<path class="st6" d="M107.05,400.31c-1.06-3.32-3.79-5.84-7.26-6.47c-1.64-0.3-3.38,0.08-4.89,0.76
						c-1.72,0.78-3.04,2.19-3.92,3.83c-0.53,0.99,0.99,1.88,1.51,0.88c0.71-1.36,1.72-2.54,3.13-3.18c1.22-0.55,2.47-0.44,3.76-0.22
						c2.58,0.45,5.22,2.32,6.23,4.79C105.95,401.58,107.35,401.26,107.05,400.31L107.05,400.31z"/>
				</g>
			</g>
			<g>
				<g>
					<path class="st6" d="M55.66,409.38c0.61-2.41,2.92-4.41,5.17-5.3c1.24-0.49,2.45-0.95,3.8-0.79c1.41,0.17,2.65,0.86,3.62,1.88
						c0.78,0.81,2.03-0.43,1.23-1.23c-1.22-1.23-2.75-2.04-4.47-2.29c-0.8-0.12-1.57-0.05-2.37-0.07c-0.83-0.02-1.62,0.15-2.38,0.46
						c-3,1.22-5.5,3.68-6.05,6.96C54.06,409.92,55.42,410.34,55.66,409.38L55.66,409.38z"/>
				</g>
			</g>
			<path class="st33" d="M121.01,432.51c0.85,3.37-2.05,7.01-6.48,8.13c-4.43,1.12-8.71-0.71-9.56-4.08
				c-0.85-3.37,2.05-7.01,6.48-8.13C115.88,427.32,120.16,429.14,121.01,432.51z"/>
			<g>
				<path class="st35" d="M67.37,434.98L67.37,434.98c-5.04,0.75-9.73-2.74-10.48-7.78l-0.72-4.83c-0.75-5.04,2.74-9.73,7.78-10.48
					l0,0c5.04-0.75,9.73,2.74,10.48,7.78l0.71,4.83C75.89,429.55,72.41,434.24,67.37,434.98z"/>
				<path class="st6" d="M74.43,419.67c-0.4-2.73-1.97-4.99-4.11-6.38c-0.76-0.15-1.54-0.19-2.33-0.07
					c-4.45,0.66-7.4,5.64-6.58,11.12c0.81,5.49,5.08,9.4,9.52,8.74c0.4-0.06,0.79-0.17,1.17-0.29c2.27-2,3.53-5.07,3.05-8.29
					L74.43,419.67z"/>
			</g>
			<g>
				<g>
					<path class="st6" d="M83.41,423.76c0.43,0.69,0.83,1.4,1.29,2.07c0.2,0.29,0.67,0.35,0.86,0c0.24-0.45,0.51-0.88,0.77-1.33
						c0.13-0.21,0.26-0.43,0.39-0.64c0.12-0.19,0.26-0.44,0.47-0.55c-0.2-0.11-0.4-0.23-0.59-0.34c0.02,0.29,0.07,0.59,0.11,0.88
						c0.03,0.31,0.07,0.61,0.1,0.92c0.03,0.29,0.05,0.59,0.06,0.89c0.02,0.32-0.03,0.71,0.13,1c0.15,0.26,0.58,0.28,0.72,0
						c0.16-0.31,0.09-0.69,0.07-1.03c-0.02-0.3-0.05-0.59-0.08-0.89c-0.04-0.31-0.07-0.62-0.13-0.93c-0.06-0.31-0.11-0.63-0.21-0.93
						c-0.12-0.37-0.64-0.38-0.76,0c-0.07,0.21-0.29,0.41-0.44,0.57c-0.17,0.19-0.34,0.39-0.51,0.59c-0.35,0.41-0.66,0.86-0.96,1.3
						c0.29,0,0.57,0,0.86,0c-0.4-0.71-0.86-1.38-1.28-2.07c-0.14-0.23-0.45-0.32-0.68-0.18C83.36,423.21,83.26,423.53,83.41,423.76
						L83.41,423.76z"/>
				</g>
			</g>
			<g>
				<path class="st35" d="M101.52,429.51L101.52,429.51c5.07-0.55,8.73-5.1,8.18-10.17l-0.53-4.86c-0.55-5.07-5.1-8.73-10.17-8.18
					l0,0c-5.07,0.55-8.73,5.1-8.18,10.16l0.53,4.86C91.9,426.39,96.45,430.06,101.52,429.51"/>
				<path class="st6" d="M90.83,416.47c-0.3-2.74,0.65-5.33,2.37-7.21c0.7-0.34,1.44-0.57,2.24-0.66c4.47-0.48,8.58,3.59,9.17,9.11
					c0.6,5.51-2.54,10.37-7.01,10.86c-0.41,0.04-0.81,0.04-1.2,0.01c-2.7-1.36-4.69-4.02-5.04-7.25L90.83,416.47z"/>
			</g>
		</g>
	</g>
		<!-- fille en dessus nounours -->
	<g id="fille_d_nounours">
		<g>
			<path class="st6" d="M701.13,89.78c0,0,21.26,32.39,0.12,41.14c0,0,3.48-4.4,2-11.33c0,0-1.45,11.61-13.42,13.83
				s-15.07-3.81-15.07-3.81l-17.24-2.91c0,0-72.95-8.89-81.86-19.47c-8.9-10.58,6.09-28.2,6.09-28.2s-18.02,15.94-10.2,27.11
				c0,0-11.82-5.6-5.51-19.9c6.32-14.3,21.78-24.07,21.78-24.07s12.52-52.86,57.15-46.16C669.32,19.66,701.13,89.78,701.13,89.78z"
				/>
			<g>
				<g>
					<g>
						<path class="st32" d="M586.55,80.73c-1.56,8.15,3.23,15.92,10.7,17.35c7.47,1.43,14.79-4.01,16.35-12.16
							c1.56-8.15-3.23-15.92-10.7-17.35C595.44,67.13,588.11,72.58,586.55,80.73z"/>
						<path class="st33" d="M589.94,81.42c-0.92,4.81,1.9,9.38,6.31,10.23c4.4,0.84,8.72-2.37,9.64-7.17
							c0.92-4.81-1.9-9.38-6.31-10.23C595.17,73.4,590.86,76.61,589.94,81.42z"/>
						<path class="st32" d="M640.82,44.96l18.86,4.87c24.48,2.19,29.17,24.89,25.35,44.79l-1.14,5.95
							c2.66,21.78-23.04,32.95-42.94,29.13l-15.46-2.96c-19.9-3.81-32.95-23.04-29.13-42.94l1.14-5.95
							C601.3,57.95,620.91,41.15,640.82,44.96z"/>
						<g>
							<path class="st36" d="M631.44,88.26l0.66-4.14c0.68-4.32-2.48-8.42-7.06-9.14l0,0c-4.58-0.73-8.86,2.19-9.54,6.51l-0.66,4.14
								"/>
						</g>
						<g>
							<path class="st36" d="M666.45,94.83l0.44-4.17c0.46-4.35-2.91-8.28-7.53-8.76l0,0c-4.62-0.49-8.73,2.64-9.19,7l-0.44,4.17"/>
						</g>
						<path class="st35" d="M628.24,93.9c4.17-0.56,7.61,4.55,10.44,4.19c2.83-0.36,9.72-3.74,10.97-0.55
							c1.26,3.19-3.21,11.14-13.56,9.56C625.74,105.51,624.07,94.46,628.24,93.9z"/>
						<path class="st32" d="M672.31,94.18c-1.56,8.15,3.23,15.92,10.7,17.35c7.47,1.43,14.79-4.01,16.35-12.16
							c1.56-8.15-3.23-15.92-10.7-17.35C681.19,80.59,673.87,86.03,672.31,94.18z"/>
						<path class="st33" d="M678.52,95.26c-0.92,4.81,1.9,9.38,6.31,10.23c4.4,0.84,8.72-2.37,9.64-7.17
							c0.92-4.81-1.9-9.38-6.31-10.23C683.76,87.25,679.44,90.46,678.52,95.26z"/>
						<g>
							<path class="st6" d="M606.8,33.66c0,0,14.21-31.59,60.95-13c54.3,14.8,38.05,67.69,31.7,74.26c0,0,0.12-11.63-12.63-12.97
								c-2.41,4.98-6.82,13.62-8.3,13.31c-1.4-0.29-0.09-11.62,0.91-18.95c-5.07-4.77-11.79-12.58-15.99-23.35
								c-1.48-0.82-3.25-1.66-5.31-2.42c-5.01-0.77-11.17-1.23-16.68-0.21c-11.78,2.18-23.64,14.93-24.71,12.38
								c-0.61-1.46,0.9-6.52,2.31-10.59c-0.9,0.34-1.8,0.7-2.72,1.08c-9.07,3.62-18.95,27.58-19.36,26.89
								C592.66,72.87,596.1,47.53,606.8,33.66z"/>
							<path class="st4" d="M626,19.48c-5.99-0.15-13.9,10.05-8.02,12.93C623.86,35.28,632,19.62,626,19.48z"/>
							<path class="st4" d="M633.96,27.2c-4.2-0.1-9.73,7.04-5.62,9.05C632.46,38.27,638.16,27.3,633.96,27.2z"/>
							<path class="st6" d="M699.37,94.99c0.03-0.03,0.05-0.05,0.07-0.07C699.45,94.92,699.42,94.95,699.37,94.99z"/>
						</g>
						<path class="st4" d="M696.92,44.87c4.74,1.09,8.89,10.68,3.7,11.76C695.42,57.71,692.18,43.78,696.92,44.87z"/>
						<path class="st4" d="M689.12,49.33c3.32,0.76,6.23,7.48,2.59,8.24C688.07,58.32,685.8,48.57,689.12,49.33z"/>
						<path class="st33" d="M655.36,103.99c-0.77,3.39,2.22,6.95,6.68,7.96c4.46,1.01,8.69-0.93,9.45-4.32
							c0.77-3.39-2.23-6.95-6.68-7.96S656.13,100.6,655.36,103.99z"/>
						<g>
							<g>
								<path class="st6" d="M618.64,67.27c1.47-2.22,4.45-3.49,7.07-3.39c1.32,0.05,2.56,0.19,3.65,0.99
									c1.26,0.91,2.01,2.3,2.41,3.77c0.29,1.07,1.97,0.61,1.66-0.46c-0.4-1.41-1.07-2.74-2.1-3.8c-0.9-0.94-2.04-1.56-3.22-2.09
									c-2.39-1.06-5.5-0.45-7.65,0.93c-1.32,0.84-2.32,1.96-3.12,3.3C616.84,67.35,618.11,68.07,618.64,67.27L618.64,67.27z"/>
							</g>
						</g>
						<g>
							<g>
								<path class="st6" d="M671.18,74.28c-0.69-3.26-3.15-5.63-6.2-6.8c-0.77-0.3-1.57-0.44-2.39-0.41
									c-0.8,0.03-1.58-0.01-2.37,0.12c-1.7,0.28-3.23,1.14-4.41,2.39c-0.76,0.81,0.47,2.04,1.22,1.22
									c0.95-1.04,2.15-1.76,3.56-1.98c1.36-0.21,2.57,0.23,3.84,0.68c2.25,0.81,4.69,2.78,5.32,5.17
									C669.98,75.61,671.37,75.21,671.18,74.28L671.18,74.28z"/>
							</g>
						</g>
						<path class="st33" d="M605.32,92.62c-0.77,3.39,2.22,6.95,6.68,7.96c4.46,1.01,8.69-0.93,9.45-4.32
							c0.77-3.39-2.22-6.95-6.68-7.96C610.32,87.29,606.09,89.23,605.32,92.62z"/>
						<g>
							<g>
								<path class="st6" d="M641.08,87.65c-0.41,0.7-0.86,1.39-1.23,2.1c0.29,0,0.57,0,0.86,0c-0.31-0.44-0.63-0.88-0.99-1.28
									c-0.17-0.19-0.34-0.38-0.52-0.56c-0.15-0.16-0.39-0.35-0.47-0.57c-0.12-0.37-0.64-0.38-0.76,0
									c-0.09,0.3-0.13,0.63-0.18,0.93c-0.05,0.31-0.08,0.62-0.11,0.93c-0.03,0.3-0.05,0.59-0.06,0.89
									c-0.01,0.34-0.07,0.73,0.09,1.03c0.15,0.27,0.58,0.27,0.72,0c0.15-0.29,0.11-0.64,0.11-0.96c0.01-0.31,0.02-0.61,0.04-0.92
									c0.02-0.3,0.05-0.59,0.07-0.88c0.02-0.3,0.08-0.61,0.09-0.91c-0.2,0.11-0.4,0.23-0.59,0.34c0.21,0.1,0.35,0.33,0.48,0.52
									c0.14,0.21,0.28,0.42,0.42,0.64c0.27,0.43,0.55,0.86,0.8,1.31c0.19,0.34,0.66,0.31,0.86,0c0.44-0.68,0.83-1.4,1.24-2.1
									C642.27,87.6,641.41,87.1,641.08,87.65L641.08,87.65z"/>
							</g>
						</g>
					</g>
				</g>
			</g>
		</g>
		<g>
			<path class="st6" d="M699.45,36.58c0,0,10.39-22.47,15.9-23.44l4.34,5.37c0,0-8.98,4.95-11.06,8.64c0,0,13.44-7.76,14.96-7.86
				l6.39,14.73c0,0-21.11,1.2-20.02,1.71c1.09,0.51,18.81,0.61,18.81,0.61l0.58,6.95c0,0-24.16,3.57-25.28,2.22
				C702.95,44.15,699.45,36.58,699.45,36.58z"/>
			<g>
				<path class="st10" d="M712.28,42.44c-6.56-10.51-17.65,1.04-12.1,7.92C705.74,57.23,717.94,51.5,712.28,42.44z"/>
				<path class="st4" d="M709.38,41.97c-4.2-0.24-6.42,7.15-0.9,7.06C714,48.95,713.29,42.19,709.38,41.97z"/>
			</g>
			<g>
				<path class="st10" d="M705.11,31.73c-6.56-10.51-17.65,1.04-12.1,7.92C698.56,46.52,710.76,40.79,705.11,31.73z"/>
				<path class="st4" d="M702.2,31.26c-4.2-0.24-6.42,7.15-0.9,7.06C706.82,38.24,706.11,31.48,702.2,31.26z"/>
			</g>
		</g>
	</g>
		<!-- fille en dessus licorne -->
	<g id="fille_d_licorne">
		<g>
			<g>
				<path class="st6" d="M167.04,67.54c0,0,9.8,2.35,13.84-2.74c4.04-5.09-4.26-7.48-4.26-7.48s15.53,3.23,17.39-6.47
					c1.86-9.7-6.81-15.3-6.81-15.3s14.63-10.84,2.51-18.53c-12.12-7.69-17.7,4-17.7,4s4.42-13.11-8.05-14.93
					c-12.47-1.82-14.02,19.68-14.02,19.68s-5.79-16.51-14.56,0.36c-8.77,16.87,12.99,32.5,12.99,32.5L167.04,67.54z"/>
				<path class="st37" d="M167.04,67.54c0,0,9.8,2.35,13.84-2.74c4.04-5.09-4.26-7.48-4.26-7.48s15.53,3.23,17.39-6.47
					c1.86-9.7-6.81-15.3-6.81-15.3s14.63-10.84,2.51-18.53c-12.12-7.69-17.7,4-17.7,4s4.42-13.11-8.05-14.93
					c-12.47-1.82-14.02,19.68-14.02,19.68s-5.79-16.51-14.56,0.36c-8.77,16.87,12.99,32.5,12.99,32.5L167.04,67.54z"/>
				<path class="st38" d="M173.91,71.25c0,0,4.08-1.73,3.23-7.75c-0.85-6.02-19.2-39.45-44.24-36.35l-9.26,8.28L173.91,71.25z"/>
				<path class="st39" d="M173.91,71.25c0,0,4.08-1.73,3.23-7.75c-0.85-6.02-19.2-39.45-44.24-36.35l-9.26,8.28L173.91,71.25z"/>
				<path class="st4" d="M160.63,9.35c-6.25,0.84-8.22,7.35-2.7,8.1C163.45,18.2,166.88,8.5,160.63,9.35z"/>
			</g>
			<g>
				<path class="st6" d="M69.36,50.27c0,0-3.92-9.29-10.41-9.52c-6.49-0.24-3.5,7.86-3.5,7.86s-6.6-14.42-15.52-10.17
					c-8.92,4.25-8.29,14.56-8.29,14.56s-18.69-6.7-17.7,7.62c0.99,14.32,16.84,16.42,16.84,16.42s-15.02,1.02-9.1,12.14
					c5.92,11.12,24.16-0.37,24.16-0.37s-9.87,14.45,8.92,11.52c18.79-2.94,18.48-29.72,18.48-29.72L69.36,50.27z"/>
				<path class="st37" d="M69.36,50.27c0,0-3.92-9.29-10.41-9.52c-6.49-0.24-3.5,7.86-3.5,7.86s-6.6-14.42-15.52-10.17
					c-8.92,4.25-8.29,14.56-8.29,14.56s-18.69-6.7-17.7,7.62c0.99,14.32,16.84,16.42,16.84,16.42s-15.02,1.02-9.1,12.14
					c5.92,11.12,24.16-0.37,24.16-0.37s-9.87,14.45,8.92,11.52c18.79-2.94,18.48-29.72,18.48-29.72L69.36,50.27z"/>
				<path class="st38" d="M76.8,47.62c0,0-3.16-2.72-7.34-1.16c-5.29,1.97-15.39,32.32-6.64,46.39c1.63,2.61,6.9,2.12,10.89,1.51
					L76.8,47.62z"/>
				<path class="st39" d="M76.8,47.62c0,0-3.16-2.72-7.34-1.16c-5.29,1.97-15.39,32.32-6.64,46.39c1.63,2.61,6.9,2.12,10.89,1.51
					L76.8,47.62z"/>
				<path class="st4" d="M41.99,41.98c-4.91,2.51-0.67,11.71,4.63,10.24C51.92,50.75,46.9,39.47,41.99,41.98z"/>
				<path class="st4" d="M35.94,48.91c-2.29,1.3-0.06,9.33,3.02,8.01C42.05,55.61,38.23,47.61,35.94,48.91z"/>
			</g>
		</g>
		<g>
			<g>
				<path class="st32" d="M182.15,87.23c2.02,7.56-1.96,15.2-8.89,17.06c-6.93,1.85-14.2-2.77-16.22-10.34
					c-2.02-7.56,1.96-15.2,8.89-17.06C172.87,75.03,180.13,79.66,182.15,87.23z"/>
				<path class="st33" d="M179.01,88.11c1.19,4.46-1.15,8.96-5.24,10.06c-4.09,1.09-8.37-1.64-9.56-6.1
					c-1.19-4.46,1.15-8.96,5.24-10.06C173.54,80.92,177.82,83.65,179.01,88.11z"/>
				<path class="st0" d="M179.58,94.26c-2.33-1.15-3.29,1.88-3.29,1.88s-2.04-2.93-3.59-1.64c-1.54,1.29,1.46,6.48,4.28,6.38
					C179.8,100.79,181.91,95.42,179.58,94.26z"/>
				<path class="st32" d="M127.45,57.83l-17.42,5.86c-22.89,3.72-25.76,25.41-20.82,43.88l1.48,5.52
					c-1.03,20.68,23.92,29.44,42.4,24.5l14.35-3.84c18.47-4.94,29.44-23.92,24.5-42.4l-1.48-5.52
					C165.52,67.37,145.92,52.89,127.45,57.83z"/>
				<g>
					<g>
						<path class="st6" d="M152.45,75.02c-1.22-2.27-3.28-3.91-5.8-4.49c-1.2-0.27-2.6-0.41-3.79-0.01
							c-1.15,0.39-2.31,0.98-3.24,1.76c-1.22,1.01-2.01,2.42-2.48,3.91c-0.34,1.07,1.36,1.54,1.68,0.46
							c0.4-1.32,1.12-2.58,2.27-3.38c0.47-0.32,0.99-0.64,1.56-0.72c0.65-0.08,1.32-0.14,1.98-0.14c2.45-0.02,5.16,1.27,6.52,3.36
							C151.68,76.59,152.91,75.88,152.45,75.02L152.45,75.02z"/>
					</g>
				</g>
				<g>
					<g>
						<path class="st6" d="M101.82,86.06c0.48-2.33,2.59-4.29,4.68-5.24c0.54-0.25,1.11-0.45,1.66-0.68
							c0.57-0.23,1.16-0.25,1.77-0.22c1.32,0.08,2.52,0.67,3.47,1.57c0.82,0.77,2.06-0.47,1.23-1.23c-1.24-1.14-2.72-1.83-4.4-2.01
							c-0.73-0.08-1.45,0.02-2.18,0.04c-0.87,0.02-1.63,0.23-2.42,0.6c-2.84,1.31-4.93,3.84-5.3,6.98
							C100.25,86.7,101.65,86.88,101.82,86.06L101.82,86.06z"/>
					</g>
				</g>
				<g>
					<path class="st35" d="M115.81,109.63L115.81,109.63c-4.69,1.04-9.34-1.92-10.38-6.62l-1-4.5c-1.04-4.69,1.92-9.34,6.62-10.38
						l0,0c4.69-1.04,9.34,1.92,10.38,6.62l1,4.5C123.47,103.94,120.5,108.59,115.81,109.63z"/>
					<path class="st6" d="M121.43,94.74c-0.56-2.54-2.19-4.57-4.3-5.73c-0.72-0.09-1.46-0.07-2.2,0.09
						c-4.14,0.92-6.58,5.8-5.45,10.91c1.13,5.11,5.41,8.51,9.55,7.59c0.38-0.08,0.73-0.21,1.08-0.36c2.01-2.03,2.98-5.01,2.32-8
						L121.43,94.74z"/>
				</g>
				<g>
					<path class="st35" d="M149.34,101.83L149.34,101.83c4.51-1.66,6.83-6.66,5.17-11.17l-1.59-4.33
						c-1.66-4.51-6.66-6.83-11.17-5.17l0,0c-4.51,1.66-6.83,6.66-5.17,11.17l1.59,4.33C139.82,101.17,144.83,103.49,149.34,101.83"
						/>
					<path class="st6" d="M136.58,92.33c-0.9-2.44-0.62-5.02,0.53-7.15c0.56-0.47,1.19-0.85,1.9-1.11
						c3.98-1.46,8.67,1.33,10.48,6.25c1.8,4.91,0.04,10.08-3.95,11.54c-0.36,0.13-0.73,0.22-1.1,0.28
						c-2.79-0.63-5.21-2.61-6.27-5.49L136.58,92.33z"/>
				</g>
				<g>
					<g>
						<path class="st6" d="M137.6,103.57c-0.25,1.25-1.4,2.05-2.46,2.63c-1.15,0.63-2.45,1.03-3.76,1.05
							c-1.14,0.02-2.25-0.27-3.21-0.88c-0.47-0.29-0.89-0.65-1.24-1.08c-0.35-0.43-0.59-0.95-0.99-1.33
							c-0.27-0.26-0.71-0.07-0.72,0.3c-0.04,1.28,1.31,2.43,2.29,3.05c1.18,0.74,2.59,1.09,3.97,1.04c1.54-0.06,3.04-0.57,4.36-1.36
							c1.2-0.72,2.38-1.73,2.62-3.18C138.55,103.25,137.71,103,137.6,103.57L137.6,103.57z"/>
					</g>
				</g>
				<path class="st32" d="M101.15,106.3c2.02,7.56-1.96,15.2-8.89,17.06c-6.93,1.85-14.2-2.77-16.22-10.34
					c-2.02-7.56,1.96-15.2,8.89-17.06C91.86,94.11,99.12,98.74,101.15,106.3z"/>
				<path class="st33" d="M95.38,107.74c1.19,4.46-1.15,8.96-5.24,10.06c-4.09,1.09-8.37-1.64-9.56-6.1
					c-1.19-4.46,1.15-8.96,5.24-10.06C89.9,100.55,94.18,103.28,95.38,107.74z"/>
				<path class="st0" d="M90.51,115.94c-2.33-1.15-3.29,1.88-3.29,1.88s-2.04-2.93-3.59-1.64c-1.54,1.29,1.46,6.48,4.28,6.38
					C90.73,122.46,92.84,117.09,90.51,115.94z"/>
				<g>
					<path class="st6" d="M77.53,110.52c-0.01-0.01-0.02-0.02-0.03-0.03C77.51,110.5,77.52,110.51,77.53,110.52z"/>
					<path class="st6" d="M76.08,109.22c-0.08-0.07-0.15-0.14-0.21-0.19C75.94,109.1,76.01,109.16,76.08,109.22z"/>
					<path class="st6" d="M122.86,29.49c8.06,0.23,16.13,1.01,23.43,4.42c31.14,14.53,33.08,54,26.16,58.68
						c-0.59,0.4-2.81-13.86-11.37-23.25c-10.09-12.62-24.72-11.15-36.73-8.05c-1.53,35.91-24.44,33.72-24.44,33.72
						c16.73-6,19.49-25.02,19.92-32.46c-0.51,0.15-1.01,0.3-1.5,0.45c-1.2,1.23-2.34,3.02-3.19,5.62
						c-2.75,8.46-5.63,24.37-21.26,26.6c1.36,4.66,2.3,10.33,1.36,10.67c-3.15,1.12-8.12-10.18-8.12-10.18
						c-12.42,1.91-11.56,14.28-11.56,14.28C41.44,49.23,91.6,28.61,122.86,29.49z"/>
					<path class="st40" d="M122.86,29.49c8.06,0.23,16.13,1.01,23.43,4.42c31.14,14.53,33.08,54,26.16,58.68
						c-0.59,0.4-2.81-13.86-11.37-23.25c-10.09-12.62-24.72-11.15-36.73-8.05c-1.53,35.91-24.44,33.72-24.44,33.72
						c16.73-6,19.49-25.02,19.92-32.46c-0.51,0.15-1.01,0.3-1.5,0.45c-1.2,1.23-2.34,3.02-3.19,5.62
						c-2.75,8.46-5.63,24.37-21.26,26.6c1.36,4.66,2.3,10.33,1.36,10.67c-3.15,1.12-8.12-10.18-8.12-10.18
						c-12.42,1.91-11.56,14.28-11.56,14.28C41.44,49.23,91.6,28.61,122.86,29.49z"/>
					<path class="st6" d="M75.73,108.91c-0.03-0.02-0.05-0.04-0.07-0.07C75.66,108.84,75.68,108.86,75.73,108.91z"/>
					<path class="st6" d="M75.87,109.03c-0.04-0.04-0.08-0.08-0.13-0.12C75.77,108.94,75.82,108.98,75.87,109.03z"/>
				</g>
				<path class="st4" d="M123.48,33.18c-1.68,3.44,13.14,8.87,16.9,4.47C144.13,33.24,125.17,29.73,123.48,33.18z"/>
				<path class="st4" d="M122.09,39.08c-2.5,2.49,4.05,7.37,8.11,5.68C134.27,43.07,124.59,36.58,122.09,39.08z"/>
				<path class="st4" d="M72.67,65.85c-4.38,1.35-7.65,10.66-2.68,11.32C74.95,77.83,77.06,64.5,72.67,65.85z"/>
				<path class="st4" d="M80.32,69.52c-3.07,0.94-5.35,7.46-1.88,7.93C81.91,77.92,83.39,68.58,80.32,69.52z"/>
				<path class="st33" d="M116.56,117.27c0.08,3.28-3.35,6.02-7.66,6.13c-4.31,0.1-7.87-2.47-7.95-5.75
					c-0.08-3.28,3.35-6.02,7.66-6.13C112.92,111.41,116.48,113.99,116.56,117.27z"/>
				<path class="st33" d="M165.12,104.33c0.95,3.14-1.62,6.7-5.75,7.95c-4.13,1.25-8.24-0.28-9.19-3.42
					c-0.95-3.14,1.62-6.7,5.75-7.95C160.06,99.66,164.17,101.19,165.12,104.33z"/>
				<g>
					<g>
						<path class="st6" d="M129.28,98.56c0.43,0.63,0.85,1.28,1.31,1.89c0.11,0.14,0.24,0.25,0.43,0.25c0.16,0,0.36-0.09,0.43-0.25
							c0.21-0.44,0.44-0.86,0.67-1.29c0.11-0.21,0.22-0.42,0.34-0.62c0.11-0.18,0.22-0.44,0.41-0.54c-0.2-0.11-0.4-0.23-0.59-0.34
							c0.03,0.3,0.1,0.59,0.14,0.89c0.04,0.28,0.09,0.56,0.13,0.85c0.04,0.26,0.07,0.53,0.09,0.79c0.03,0.29,0,0.68,0.16,0.93
							c0.16,0.24,0.58,0.3,0.72,0c0.14-0.3,0.08-0.62,0.04-0.93c-0.04-0.31-0.08-0.63-0.13-0.94c-0.04-0.28-0.09-0.56-0.16-0.84
							c-0.07-0.28-0.13-0.58-0.23-0.86c-0.07-0.16-0.19-0.29-0.38-0.29c-0.17,0-0.34,0.12-0.38,0.29c-0.05,0.21-0.24,0.4-0.38,0.56
							c-0.15,0.19-0.31,0.38-0.46,0.57c-0.31,0.4-0.59,0.83-0.85,1.26c0.29,0,0.57,0,0.86,0c-0.4-0.65-0.87-1.27-1.3-1.9
							c-0.15-0.22-0.44-0.32-0.68-0.18C129.24,98,129.12,98.33,129.28,98.56L129.28,98.56z"/>
					</g>
				</g>
			</g>
		</g>
	</g>
</g>
</svg>