<?xml version="1.0" encoding="utf-8"?>
<svg version="1.1" xmlns="http://www.w3.org/2000/svg" xmlns:xlink="http://www.w3.org/1999/xlink"
	x="0px" y="0px"
	viewBox="0 0 750 500" style="enable-background:new 0 0 750 500;" xml:space="preserve">
<style type="text/css">
	.st0{fill:#E94D4E;}
	.st1{opacity:0.19;fill:#FFFFFF;}
	.st2{opacity:0.34;fill:#FFFDFA;}
	.st3{fill:#FFFFFF;}
	.st4{opacity:0.15;fill:#FFFDFA;}
	.st5{opacity:0.37;fill:#FFFDFA;}
	.st6{fill:#4D2A22;}
	.st7{opacity:0.19;fill:#4D2A22;}
	.st8{opacity:0.2;fill:#FFFDFA;}
	.st9{opacity:0.61;fill:#4D2A22;}
	.st10{fill:#62416D;}
	.st11{fill:#A8DBF6;}
	.st12{opacity:0.39;fill:#FFFDFA;}
	.st13{fill:none;stroke:#FFFDFA;stroke-miterlimit:10;}
	.st14{opacity:0.63;fill:#FFFDFA;}
	.st15{opacity:0.27;fill:#FFFDFA;}
	.st16{opacity:0.56;fill:#62416D;}
	.st17{fill:#F4B306;}
	.st18{opacity:0.18;fill:#FFFDFA;}
	.st19{opacity:0.33;fill:#FFFDFA;}
	.st20{opacity:0.42;fill:none;stroke:#4D2A22;stroke-width:0.75;stroke-miterlimit:10;}
	.st21{opacity:0.31;}
	.st22{opacity:0.31;fill:#4D2A22;}
	.st23{opacity:0.08;fill:#FFFDFA;}
	.st24{opacity:0.38;fill:#FFFDFA;}
	.st25{opacity:0.19;fill:#FFFDFA;}
	.st26{fill:none;stroke:#4D2A22;stroke-miterlimit:10;}
	.st27{opacity:0.16;fill:#FFFDFA;}
	.st28{opacity:0.54;fill:#FFFDFA;}
	.st29{opacity:0.57;fill:#FFFFFF;}
	.st30{opacity:0.32;fill:#FFFDFA;}
	.st31{opacity:0.87;fill:#FFFDFA;}
	.st32{fill:#FDC59D;}
	.st33{opacity:0.35;fill:#E74D4E;}
	.st34{fill:#E74D4E;}
	.st35{fill:#FFFDFA;}
	.st36{fill:none;stroke:#4D2A22;stroke-width:2;stroke-linecap:round;stroke-linejoin:round;stroke-miterlimit:10;}
	.st37{opacity:0.3;fill:#4D2A22;}
	.st38{fill:#62C447;}
	.st39{opacity:0.52;fill:#A8DBF6;}
	.st40{opacity:0.15;fill:#4D2A22;}

	#id1 {  animation: anim1 8s infinite;}

	@keyframes anim1 {
		0% {transform: scale(1);}

		50% {transform: scale(1.1);}

		100% {transform: scale(1);}
	}

	.hover{

		transition: all 0.3s ease-in-out;
		transform: scale(1.1);

	}


	#coeur1 {  animation: anim2 500ms infinite;}
	#coeur2 {  animation: pulse 550ms infinite;}

	@keyframes anim2 {0% {opacity:1;} 50% {opacity:.5;}}
	@keyframes pulse {0% {opacity:1;} 50% {opacity:.5;}}

	#fille_d_licorne {  animation: anim3 8s infinite;}

	@keyframes anim3 {
		0% {transform: translate(0,10px);}

		50% {transform: translate(-20px,20px);}

		100% {transform: translate(0,10px);}
	}

	#fille_s_nounours {  animation: anim4 8s infinite;}

	@keyframes anim4 {
		0% {transform: translate(0,-30px);}

		50% {transform: translate(-10px,-20px);}

		100% {transform: translate(0,-30px);}
	}

	#fille_d_nounours {  animation: anim5 8s infinite;}

	@keyframes anim5 {
		0% {transform: translate(0,30px);}

		50% {transform: translate(10px,-10px);}

		100% {transform: translate(0,30px);}
	}

	#nounours {  animation: anim6 6s cubic-bezier(.8, 0, .2, 1) infinite;}

	@keyframes anim6 {
		0% {transform: rotate(0deg);}

		50% {transform: rotate(5deg);}

		100% {transform: rotate(0deg);}
	}

	#licorne  {  animation: anim7 6s cubic-bezier(.8, 0, .2, 1) infinite;}

	@keyframes anim7 {
		0% {transform: rotate(5deg);}

		50% {transform: rotate(0deg);}

		100% {transform: rotate(5deg);}
	}

	#guitare {  
		transform-origin: 50% 50%;
		animation: anim8 6s infinite;}

	@keyframes anim8 {
    0% { transform: scale(1) rotate(-1deg); }

    25% {   transform: scale(0.95) rotate(0deg);  }

    50% {  transform: scale(1) rotate(1deg);   }

    75% {  transform: scale(0.95) rotate(0deg);   }

    100% { transform: scale(1) rotate(-1deg);  }
	}

	.etoile {  
		transform-origin: 50% 50%;
		animation: anim9 6s infinite;}

	@keyframes anim9 {
	0% { transform: rotate(-1deg); }


	50% {  transform: rotate(1deg);   }


	100% { transform: rotate(-1deg);  }}



</style>
<g id="BACKGROUND">
	<g>
		<g>
			<rect x="0" class="st0" width="750" height="500"/>
		</g>
		<rect x="0" class="st1" width="750" height="500"/>
	</g>
</g>
<g id="OBJECTS">
		<!-- waves -->
	<path id="id1" class="st2" d="M26.55,175.29c26.02-36.68,83.84-31.04,109.14-47.97c17.53-11.73,21.68-89.59,78.78-102.29
		c57.1-12.7,114.2,36.68,138.05,29.63c23.85-7.05,52.04-32.45,75.89-24.69c23.85,7.76,59.94,21.55,80.58,24.99
		c39.35,6.56,64.78-37.97,115.86-29.15c80.16,13.85,25.46,128.31,53.65,144.53c28.19,16.22,76.59,69.05,52.02,115.61
		c-24.58,46.56-30.69,50.51-40.81,79.43s-3.17,82.29-34.98,102.75s-103.44-56.53-137.41-36.07
		c-33.97,20.46-54.21,57.14-101.19,55.02c-46.98-2.12-83.84-45.15-117.82-35.98c-33.97,9.17-89.68,19.99-132.99,25.39
		c-78.96,9.85-128.57,11.14-135.8-60.1c-7.23-71.25,24.78-96.19,15.82-137.41C41.08,259.37,3.67,207.54,26.55,175.29z"/>
		<!-- 4 etoiles -->
	<g>
			<!-- etoile 1 -->
		<path   class="st3 etoile" d="M43.41,127.04c0,0,1.74-13.28,2.41-12.07c0.67,1.21,0.54,12.07,0.54,12.07s8.58-6.03,8.31-4.29
			c-0.27,1.74-6.84,6.97-6.84,6.97s6.3,8.72,4.83,8.58c-1.48-0.13-8.31-6.84-8.31-6.84s-6.44,8.58-6.97,6.71s4.83-9.12,4.83-9.12
			s-10.86-1.48-9.52-2.28C34.02,125.97,43.41,127.04,43.41,127.04z"/>
			<!-- etoile 2 -->
		<path class="st3 etoile" d="M701.77,156.44c0,0-1.74-13.28-2.41-12.07c-0.67,1.21-0.54,12.07-0.54,12.07s-8.58-6.03-8.31-4.29
			c0.27,1.74,6.84,6.97,6.84,6.97s-6.3,8.72-4.83,8.58c1.48-0.13,8.31-6.84,8.31-6.84s6.44,8.58,6.97,6.71
			c0.54-1.88-4.83-9.12-4.83-9.12s10.86-1.48,9.52-2.28C711.15,155.36,701.77,156.44,701.77,156.44z"/>
		<path class="st3" d="M575.09,462.28c0,0-1.74-13.28-2.41-12.07c-0.67,1.21-0.54,12.07-0.54,12.07s-8.58-6.03-8.31-4.29
			c0.27,1.74,6.84,6.97,6.84,6.97s-6.3,8.72-4.83,8.58c1.48-0.13,8.31-6.84,8.31-6.84s6.44,8.58,6.97,6.71
			c0.54-1.88-4.83-9.12-4.83-9.12s10.86-1.48,9.52-2.28C584.48,461.21,575.09,462.28,575.09,462.28z"/>
			<!-- etoile 3 -->
		<path class="st3 etoile" d="M31.72,313.94c0,0-0.59-11.24,0.15-10.35c0.74,0.9,2.29,9.9,2.29,9.9s6.17-6.3,6.22-4.82
			c0.04,1.48-4.59,6.81-4.59,6.81s6.54,6.24,5.3,6.36c-1.24,0.11-7.92-4.38-7.92-4.38s-4.01,8.08-4.74,6.61
			c-0.73-1.47,2.6-8.28,2.6-8.28s-9.21,0.44-8.22-0.43S31.72,313.94,31.72,313.94z"/>
		<path   class="st3" d="M445.5,20.75c0,0-0.59-11.24,0.15-10.35c0.74,0.9,2.29,9.9,2.29,9.9s6.17-6.3,6.22-4.82
			c0.04,1.48-4.59,6.81-4.59,6.81s6.54,6.24,5.3,6.36c-1.24,0.11-7.92-4.38-7.92-4.38s-4.01,8.08-4.74,6.61
			c-0.73-1.47,2.6-8.28,2.6-8.28s-9.21,0.44-8.22-0.43C437.58,21.3,445.5,20.75,445.5,20.75z"/>
		<path  class="st3" d="M305.17,32.95c0,0,0.47-9.04-0.12-8.32c-0.59,0.72-1.84,7.96-1.84,7.96s-4.96-5.07-5-3.88
			c-0.04,1.19,3.69,5.48,3.69,5.48s-5.26,5.02-4.27,5.11c1,0.09,6.37-3.53,6.37-3.53s3.22,6.5,3.81,5.32
			c0.59-1.18-2.09-6.66-2.09-6.66s7.4,0.36,6.61-0.34C311.55,33.39,305.17,32.95,305.17,32.95z"/>
			<!-- etoile 4 -->
		<path class="st3 etoile" d="M728.59,300.3c0,0,0.47-9.04-0.12-8.32c-0.59,0.72-1.84,7.96-1.84,7.96s-4.96-5.07-5-3.88
			c-0.04,1.19,3.69,5.48,3.69,5.48s-5.26,5.02-4.27,5.11c1,0.09,6.37-3.52,6.37-3.52s3.22,6.5,3.81,5.32
			c0.59-1.18-2.09-6.66-2.09-6.66s7.4,0.36,6.61-0.34C734.97,300.74,728.59,300.3,728.59,300.3z"/>
		<path class="st3" d="M287.33,467.27c0,0-0.59-11.24,0.15-10.35c0.74,0.9,2.29,9.9,2.29,9.9s6.17-6.3,6.22-4.82
			c0.04,1.48-4.59,6.81-4.59,6.81s6.54,6.24,5.3,6.36c-1.24,0.11-7.92-4.38-7.92-4.38s-4.01,8.08-4.74,6.61
			c-0.73-1.47,2.6-8.28,2.6-8.28s-9.21,0.44-8.22-0.43C279.41,467.81,287.33,467.27,287.33,467.27z"/>
	</g>
		<!-- peche -->
	<g>
		<path class="st0" d="M531.86,59.33c3.92-9.19,12.54-5.13,12.54-5.13s3.93-6.35,9.91-1.97s7.84,15.88-5.23,21.55
			C536,79.46,527.93,68.51,531.86,59.33z"/>
		<path class="st4" d="M531.86,59.33c3.92-9.19,12.54-5.13,12.54-5.13s3.93-6.35,9.91-1.97s7.84,15.88-5.23,21.55
			C536,79.46,527.93,68.51,531.86,59.33z"/>
		<path class="st5" d="M551.59,53.93c3.17-0.16,5.95,6.45,2.05,6.58C549.73,60.65,548.42,54.09,551.59,53.93z"/>
		<path class="st6" d="M547.79,53.32c0,0,0.76,5.67-7.48,2.49C540.31,55.81,546.41,56.71,547.79,53.32z"/>
		<path class="st7" d="M531.76,68.63c2.27,5.42,8.71,8.89,17.31,5.15c8.48-3.68,10.67-9.81,9.53-14.86
			C552.56,73.75,539.64,71.64,531.76,68.63z"/>
		<g>
			<path class="st0" d="M503.53,42.81c9.25-3.76,12.51,5.19,12.51,5.19s7.26-1.74,8.42,5.58c1.16,7.32-5.61,16.8-18.89,11.62
				S494.27,46.57,503.53,42.81z"/>
			<path class="st8" d="M503.53,42.81c9.25-3.76,12.51,5.19,12.51,5.19s7.26-1.74,8.42,5.58c1.16,7.32-5.61,16.8-18.89,11.62
				S494.27,46.57,503.53,42.81z"/>
			<path class="st6" d="M512.24,44.78c0,0,1.12,6.83,7.96,4.55C520.2,49.34,515.45,49.26,512.24,44.78z"/>
			<path class="st5" d="M507.34,45c5.5,2.62-1.42,7.42-5.12,5.37C498.52,48.32,501.84,42.38,507.34,45z"/>
			<path class="st6" d="M515.04,47.71c0,0,13.79-19.29,21.12-22.16c0,0-4.21-5.54-4-6.44c0.21-0.9,1.32-1.6,1.32-1.6
				s9.84,13.06,13.69,14.53c0,0-0.78,1.72-1.69,1.51c-0.9-0.21-7.33-5.96-7.33-5.96s7.68,26.12,8.07,27.74l-1.52,0.79l-8.74-28.05
				c0,0-14.5,11.6-19.65,20.69C516.32,48.77,514.95,48.33,515.04,47.71z"/>
			<path class="st7" d="M523.8,59.37l0.03-0.17c-15.4,11.51-23.66,0.11-27.38-8.44c-1.33,5.2,1.12,11.32,9.12,14.44
				C515.43,69.04,521.7,64.8,523.8,59.37z"/>
		</g>
	</g>
		<!-- noeuds -->
	<g>
		<path class="st0" d="M239.61,47.34c0,0,11.03-19.49,18.54-16.74c7.51,2.75,5.64,16.96,6.04,19.27c0.4,2.3,5.05,10.08,0.95,13.7
			c-4.09,3.62-22.9-7.24-22.9-7.24L239.61,47.34z"/>
		<path class="st7" d="M239.61,47.34c0,0,11.03-19.49,18.54-16.74c7.51,2.75,5.64,16.96,6.04,19.27c0.4,2.3,5.05,10.08,0.95,13.7
			c-4.09,3.62-22.9-7.24-22.9-7.24L239.61,47.34z"/>
		<path class="st9" d="M242.61,50.22c0,0,11.44-5.81,10.39-2.98c-1.05,2.83-10.06,4.09-10.06,4.09s10.2,2.9,7.22,4.28
			c-2.99,1.38-9.01-3.45-9.01-3.45L242.61,50.22z"/>
		<path class="st9" d="M241.68,49.38c0,0,7.3-9.7,8.56-7.74S241.57,50.7,241.68,49.38z"/>
		<path class="st0" d="M235.89,48c0,0-15.17-14.59-20.93-11.15c-5.76,3.44-0.58,15.4-1.64,17.21c-1.07,1.81-1.93,17.38,5.55,15.84
			c7.49-1.54,18.53-13.81,18.53-13.81L235.89,48z"/>
		<path class="st7" d="M235.89,48c0,0-15.17-14.59-20.93-11.15c-5.76,3.44-0.58,15.4-1.64,17.21c-1.07,1.81-1.93,17.38,5.55,15.84
			c7.49-1.54,18.53-13.81,18.53-13.81L235.89,48z"/>
		<path class="st9" d="M233.31,49.42c0,0-9.54-7.32-9.07-4.92C224.72,46.9,233.31,49.42,233.31,49.42z"/>
		<path class="st9" d="M234.01,52.83c0,0-11.81-2.14-10.12-0.27C225.58,54.42,234.01,52.83,234.01,52.83z"/>
		<path class="st9" d="M235.02,54.53c0,0-10.55,5.73-8.44,6.38C228.69,61.56,235.02,54.53,235.02,54.53z"/>
		<path class="st0" d="M232.24,47.45c2.45-3.42,8.35-4.01,10.11-1.74s3.55,9.22,1.94,10.77c-1.61,1.55-7.84,3.9-9.65,2.83
			C232.82,58.24,229.78,50.87,232.24,47.45z"/>
	</g>
		<!-- guitare -->
	<g id="guitare">
		<g>
			<polygon class="st10" points="343.12,36.32 350.38,24.05 374.75,44.08 368.88,51.77 			"/>
			<path class="st11" d="M385.69,31.62c13.7,1.02,11.13,20.52,18.75,19.85c7.61-0.66,23.53-2.23,33.5,11.65
				c12.3,17.12-8.81,50.62-33.29,46.24s-17.34-28.06-24.11-29.75c-6.77-1.68-17.43-1.86-21.82-13.08
				C354.34,55.31,372,30.6,385.69,31.62z"/>
			<path class="st12" d="M361.66,64.71c7.07,7.31,18.83,3.96,23.47,10.27c4.64,6.31,1,20.55,11.38,26.69
				c8,4.74,22.92,4.46,34.59-2.41c9.76-10.36,14.07-26.08,6.84-36.15c-9.97-13.88-25.89-12.31-33.5-11.65
				c-7.61,0.66-5.05-18.84-18.75-19.85c-8.27-0.61-17.97,8.14-23.4,17.65C359.83,55.11,358.44,61.38,361.66,64.71z"/>
			<path class="st10" d="M389.18,50.98c9.66,4.7,3.17,19.3-7.49,13.44C371.02,58.57,379.52,46.28,389.18,50.98z"/>
			<polygon class="st10" points="412.8,84.11 420,70.79 424.17,73.24 416.72,85.97 			"/>
			<path class="st11" d="M352.31,25.49c0,0-6.44,13.88-7.95,12.76c-1.51-1.11-19.44-8.28-19.42-10.74
				c0.02-2.46,12.43-17.28,15.65-16.7C343.8,11.39,352.31,25.49,352.31,25.49z"/>
			<line class="st13" x1="343.49" y1="25.96" x2="420.01" y2="76.97"/>
			<line class="st13" x1="341.16" y1="19.01" x2="421.14" y2="75"/>
			<line class="st13" x1="340.82" y1="29.71" x2="418.68" y2="79.82"/>
			<line class="st13" x1="331.85" y1="27.49" x2="417.15" y2="82.76"/>
		</g>
		<path class="st10" d="M334.33,24.58c1.81,1.22,1.36,3.99-1.62,3.41C329.73,27.42,331.89,22.94,334.33,24.58z"/>
		<path class="st10" d="M340.4,28.36c1.81,1.22,1.36,3.99-1.62,3.41C335.8,31.2,337.96,26.72,340.4,28.36z"/>
		<path class="st10" d="M340.67,18.28c1.81,1.22,1.36,3.99-1.62,3.41C336.08,21.11,338.24,16.64,340.67,18.28z"/>
		<path class="st10" d="M344.66,23.99c1.81,1.22,1.36,3.99-1.62,3.41C340.06,26.83,342.22,22.35,344.66,23.99z"/>
	</g>
		<!-- jouets a vents -->
	<g>
		<g>
			<path class="st0" d="M522.97,417.99l-7.56,52.11c-0.16,1.05,0.51,2.05,1.55,2.29l0,0c1.16,0.27,2.3-0.51,2.47-1.69l6.92-52.1
				L522.97,417.99z"/>
			<path class="st14" d="M522.97,417.99l-7.56,52.11c-0.16,1.05,0.51,2.05,1.55,2.29l0,0c1.16,0.27,2.3-0.51,2.47-1.69l6.92-52.1
				L522.97,417.99z"/>
		</g>
		<g id="fleur">
			<g>
				<path class="st0" d="M540.75,403.79c0,0,4.7,15.57,5,18.81c0.29,3.23-12.34,21.74-13.81,20.28c-1.47-1.47-7.05-35.26-7.05-35.26
					L540.75,403.79z"/>
				<path class="st11" d="M525.08,408.81c1.01,6.02,5.55,32.76,6.85,34.06c1.32,1.32,11.71-13.58,13.54-18.9
					C540.49,419.69,531.61,412.4,525.08,408.81z"/>
			</g>
			<g>
				<path class="st0" d="M522.31,391.08c0,0,15.92-3.35,19.17-3.36c3.25-0.02,20.6,14.16,19.01,15.5c-1.59,1.34-35.74,4-35.74,4
					L522.31,391.08z"/>
				<path class="st15" d="M522.31,391.08c0,0,15.92-3.35,19.17-3.36c3.25-0.02,20.6,14.16,19.01,15.5c-1.59,1.34-35.74,4-35.74,4
					L522.31,391.08z"/>
				<path class="st11" d="M525.97,407.13c6.08-0.49,33.11-2.72,34.52-3.9c1.43-1.21-12.52-12.83-17.67-15.11
					C538.14,392.71,530.11,400.93,525.97,407.13z"/>
				<path class="st16" d="M525.97,407.13c6.08-0.49,33.11-2.72,34.52-3.9c1.43-1.21-12.52-12.83-17.67-15.11
					C538.14,392.71,530.11,400.93,525.97,407.13z"/>
			</g>
			<g>
				<path class="st0" d="M509.65,411.33c0,0-4.7-15.57-5-18.81c-0.29-3.23,12.34-21.74,13.81-20.28c1.47,1.47,7.05,35.26,7.05,35.26
					L509.65,411.33z"/>
				<path class="st11" d="M525.32,406.31c-1.01-6.02-5.55-32.76-6.85-34.06c-1.32-1.32-11.71,13.58-13.54,18.9
					C509.91,395.42,518.79,402.71,525.32,406.31z"/>
			</g>
			<g>
				<path class="st0" d="M524.91,407.74l-0.04-0.18c0,0-33.94,4.62-35.45,6.05c-1.51,1.43,16.64,14.58,19.88,14.38
					c2.88-0.18,15.57-3.55,18.38-4.31C526.29,416.04,525.08,408.79,524.91,407.74z"/>
				<path class="st15" d="M524.91,407.74l-0.04-0.18c0,0-33.94,4.62-35.45,6.05c-1.51,1.43,16.64,14.58,19.88,14.38
					c2.88-0.18,15.57-3.55,18.38-4.31C526.29,416.04,525.08,408.79,524.91,407.74z"/>
				<path class="st11" d="M523.66,407.73c-6.05,0.84-32.9,4.62-34.24,5.88c-1.36,1.29,13.24,12.09,18.51,14.07
					C512.34,422.82,519.88,414.15,523.66,407.73z"/>
				<path class="st16" d="M523.66,407.73c-6.05,0.84-32.9,4.62-34.24,5.88c-1.36,1.29,13.24,12.09,18.51,14.07
					C512.34,422.82,519.88,414.15,523.66,407.73z"/>
			</g>
			<path class="st10" d="M524.65,404.9c3.5-0.14,3.67,4.37,0.52,5.18C522.03,410.9,520.17,405.08,524.65,404.9z"/>
		</g>
	</g>
		<!-- courone sur fille -->
	<path class="st17" d="M707.33,357.55c0,0,7.47-18.15,8.34-16.98c0.87,1.17,2.69,7.21,2.69,7.21s8.02-10.57,8.69-9.01
		c0.67,1.56-1.8,11.76-1.8,11.76s6.24-3.67,6.14-2.5c-0.1,1.17-8.53,16.4-9.21,16.79C721.49,365.19,713.51,366.52,707.33,357.55z"/>
		<!-- coeur -->
	<g>
		<g id="coeur1">
			<path class="st0" d="M176.52,409.56c5.87-8.98,15.54-2.42,15.54-2.42s2.8-10.43,10.01-6.56c14.16,7.6-1.04,29.01-6.22,29.01
				C190.68,429.59,170.65,418.54,176.52,409.56z"/>
			<path class="st18" d="M176.52,409.56c5.87-8.98,15.54-2.42,15.54-2.42s2.8-10.43,10.01-6.56c14.16,7.6-1.04,29.01-6.22,29.01
				C190.68,429.59,170.65,418.54,176.52,409.56z"/>
		</g>
		<path  class="st0" d="M212.05,445.95c3.11-2.08,5.52,0.65,5.95,2.03c0,0,2.12-3.36,4.88-0.64c2.76,2.71-6.72,9.75-6.72,9.75
			S208.94,448.03,212.05,445.95z"/>
		<g id="coeur2">
			<path class="st0" d="M238.71,434.76c0,0-13.93-14.91-8.56-23.22c5.38-8.31,12.47-0.73,13.2,1.22c0,0,6.35-6.63,12.53,0.9
				C261.51,420.5,243.6,434.76,238.71,434.76z"/>
			<path class="st19" d="M238.71,434.76c0,0-13.93-14.91-8.56-23.22c5.38-8.31,12.47-0.73,13.2,1.22c0,0,6.35-6.63,12.53,0.9
				C261.51,420.5,243.6,434.76,238.71,434.76z"/>
		</g>
	</g>
		<!-- nounours -->
	<g id="nounours">
		<path class="st10" d="M703.51,236.62c0,0,23.52,10.31,26.32,25.93c1.18,6.6-7.24,13.77-9.06,12.73
			c-1.83-1.04-17.42-30.4-17.42-30.4L703.51,236.62z"/>
		<path class="st20" d="M703.57,237.66c0,0,19.94,16.9,23.42,27.02"/>
		<path class="st10" d="M671.01,240.22c0,0-17.58,29.38-14.71,35.45c5.07,10.69,18.61,10.25,19.54,8.37
			c0.93-1.88-0.07-37.28-0.07-37.28L671.01,240.22z"/>
		<path class="st20" d="M658.27,275.43c0,0,6.21-22.22,11.68-29.53"/>
		<g class="st21">
			<path class="st6" d="M675.84,249.33c-0.04-1.61-0.07-2.58-0.07-2.58l-4.76-6.53c0,0-1.62,2.71-3.79,6.64
				C669.79,248.11,672.68,248.97,675.84,249.33z"/>
		</g>
		<path class="st22" d="M706.36,238.02c-1.75-0.91-2.86-1.4-2.86-1.4l-0.09,4.36C704.52,240.04,705.5,239.06,706.36,238.02z"/>
		<path class="st10" d="M668.35,266.59c0,0-6.64-27.05,16.71-32.85c26.17-6.5,41.07,36.23,18.34,47.96
			C685.06,291.17,671.28,280.72,668.35,266.59z"/>
		<path class="st23" d="M668.35,266.59c0,0-6.64-27.05,16.71-32.85c26.17-6.5,41.07,36.23,18.34,47.96
			C685.06,291.17,671.28,280.72,668.35,266.59z"/>
		<path class="st7" d="M669.13,247.7c7.33,2.83,16.85,2.62,27.79-2.56c3.36-1.59,6.1-3.57,8.26-5.82
			c-5.14-4.94-12.1-7.57-20.12-5.58C675.78,236.05,671.24,241.71,669.13,247.7z"/>
		<path class="st10" d="M677.55,271.69c0,0-3.51-13.29,12.22-17.09c17.62-4.25,26.41,18.15,11,25.43
			C688.34,285.9,679.29,279.97,677.55,271.69z"/>
		<path class="st24" d="M677.55,271.69c0,0-3.51-13.29,12.22-17.09c17.62-4.25,26.41,18.15,11,25.43
			C688.34,285.9,679.29,279.97,677.55,271.69z"/>
		<line class="st20" x1="687.29" y1="242.89" x2="695.09" y2="282.83"/>
		<g>
			<g>
				<path class="st10" d="M694.43,203.67c0,0-3.69-12.48,7.34-12.14c16.13,0.51,12.52,17.8,1.01,19.98L694.43,203.67z"/>
				<path class="st4" d="M694.43,203.67c0,0-3.69-12.48,7.34-12.14c16.13,0.51,12.52,17.8,1.01,19.98L694.43,203.67z"/>
				<path class="st10" d="M698.02,202.9c0,0-2.01-6.8,4-6.61c8.78,0.28,6.82,9.69,0.55,10.88L698.02,202.9z"/>
			</g>
			<g>
				<path class="st10" d="M665.5,209.32c0,0-1.28-12.96-11.37-8.48c-14.75,6.54-4.9,21.21,6.58,18.9L665.5,209.32z"/>
				<path class="st4" d="M665.5,209.32c0,0-1.28-12.96-11.37-8.48c-14.75,6.54-4.9,21.21,6.58,18.9L665.5,209.32z"/>
				<path class="st10" d="M661.89,209.96c0,0-0.7-7.05-6.19-4.62c-8.03,3.56-2.67,11.55,3.58,10.29L661.89,209.96z"/>
			</g>
			<path class="st10" d="M654.75,228.67c0,0-6.28-23.77,21.85-30.56c31.52-7.61,47.23,32.45,19.68,45.48
				C674.04,254.09,657.85,243.47,654.75,228.67z"/>
			<path class="st25" d="M654.75,228.67c0,0-6.28-23.77,21.85-30.56c31.52-7.61,47.23,32.45,19.68,45.48
				C674.04,254.09,657.85,243.47,654.75,228.67z"/>
			<line class="st20" x1="681.95" y1="218.5" x2="678.55" y2="201.1"/>
			<path class="st25" d="M675.53,199.7c1,0.25,1.88,2.48,0.75,2.89C675.16,203,674.53,199.46,675.53,199.7z"/>
			<path class="st25" d="M676.82,199.2c0.96-0.25,2.67,2.01,1.71,2.58C677.56,202.34,675.86,199.45,676.82,199.2z"/>
			<path class="st25" d="M678.67,198.96c1.34-0.26,3.81,1.72,2.7,2.51C680.26,202.26,677.33,199.22,678.67,198.96z"/>
			<path class="st6" d="M693.93,221.1l-0.23,0.04c-1.47,0.29-2.9-0.67-3.19-2.14l-0.47-2.39c-0.29-1.47,0.67-2.9,2.14-3.19
				l0.23-0.04c1.47-0.29,2.9,0.67,3.19,2.14l0.47,2.39C696.36,219.39,695.4,220.81,693.93,221.1z"/>
			<path class="st6" d="M672.14,226.59l-0.23,0.04c-1.47,0.29-2.9-0.67-3.19-2.14l-0.47-2.39c-0.29-1.47,0.67-2.9,2.14-3.19
				l0.23-0.04c1.47-0.29,2.9,0.67,3.19,2.14l0.47,2.39C674.57,224.88,673.61,226.31,672.14,226.59z"/>
			<path class="st10" d="M671.06,233.74c0,0-3.13-11.85,10.89-15.24c15.72-3.79,23.55,16.18,9.81,22.68
				C680.68,246.42,672.6,241.12,671.06,233.74z"/>
			<path class="st24" d="M671.06,233.74c0,0-3.13-11.85,10.89-15.24c15.72-3.79,23.55,16.18,9.81,22.68
				C680.68,246.42,672.6,241.12,671.06,233.74z"/>
			<line class="st26" x1="683.28" y1="222.26" x2="684.57" y2="228.87"/>
			<polyline class="st26" points="682.1,231.91 684.58,227.84 688.06,230.44 			"/>
			<path class="st6" d="M687.05,219.44c0.32,1.65-1.38,3.37-3.79,3.84c-2.42,0.47-4.64-0.48-4.96-2.13
				c-0.32-1.65,1.38-3.37,3.79-3.84C684.51,216.84,686.73,217.79,687.05,219.44z"/>
		</g>
		<g>
			<g>
				<path class="st10" d="M668.36,272.01c-9.82,7.9,2.8,26.82,14.37,18.56C693.54,282.85,678.18,264.11,668.36,272.01z"/>
				<path class="st27" d="M668.36,272.01c-9.82,7.9,2.8,26.82,14.37,18.56C693.54,282.85,678.18,264.11,668.36,272.01z"/>
				<path class="st10" d="M670.4,276.41c-6.15,4.94,1.75,16.8,9,11.62C686.17,283.2,676.55,271.47,670.4,276.41z"/>
				<path class="st23" d="M670.4,276.41c-6.15,4.94,1.75,16.8,9,11.62C686.17,283.2,676.55,271.47,670.4,276.41z"/>
			</g>
			<g>
				<path class="st10" d="M715.7,262.76c12.07,3.62,7.5,25.9-6.33,22.61C696.45,282.28,703.63,259.14,715.7,262.76z"/>
				<path class="st27" d="M715.7,262.76c12.07,3.62,7.5,25.9-6.33,22.61C696.45,282.28,703.63,259.14,715.7,262.76z"/>
				<path class="st10" d="M715.47,267.61c7.56,2.27,4.7,16.22-3.96,14.15C703.41,279.84,707.91,265.34,715.47,267.61z"/>
				<path class="st23" d="M715.47,267.61c7.56,2.27,4.7,16.22-3.96,14.15C703.41,279.84,707.91,265.34,715.47,267.61z"/>
			</g>
		</g>
	</g>
		<!-- licorne -->
	<g id="licorne">
		<g>
			<g>
				<path class="st3" d="M40.95,221.7c0,0-24.37,7.46-24.41,12.32c-0.05,4.86,2.52,9.84,6.13,9.96c3.61,0.12,26.27-6.25,26.27-6.25"
					/>
				<path class="st0" d="M22.67,243.98c0.85,0.03,2.77-0.31,5.19-0.83c-0.13-3.83-3.27-10.72-5.09-14.42
					c-3.56,1.81-6.22,3.69-6.24,5.29C16.49,238.89,19.06,243.86,22.67,243.98z"/>
				<path class="st7" d="M40.95,221.7c0,0-24.37,7.46-24.41,12.32c-0.05,4.86,2.52,9.84,6.13,9.96c3.61,0.12,26.27-6.25,26.27-6.25"
					/>
			</g>
			<g>
				<path class="st3" d="M74.88,246.81c0,0,7.48,24.36,12.34,24.4c4.86,0.04,9.84-2.53,9.95-6.14c0.12-3.61-6.27-26.26-6.27-26.26"
					/>
				<path class="st0" d="M97.18,265.08c0.03-0.85-0.31-2.77-0.84-5.19c-3.83,0.13-10.72,3.28-14.42,5.1c1.81,3.56,3.7,6.22,5.3,6.23
					C92.08,271.26,97.06,268.68,97.18,265.08z"/>
				<path class="st7" d="M74.88,246.81c0,0,7.48,24.36,12.34,24.4c4.86,0.04,9.84-2.53,9.95-6.14c0.12-3.61-6.27-26.26-6.27-26.26"
					/>
			</g>
			<path class="st0" d="M37.63,185.01c0,0-8.67-4.26-7.4-10.48c1.27-6.23,22.46-14.1,37.24-4.32c13.64,9.02,12.9,34.51,0.71,42.23
				L37.63,185.01z"/>
			<path class="st0" d="M111.58,206.06c14.33,1.79,16.98,23.33,19.47,24.22s6.4-4.23,6.32-1.95c-0.08,2.27-8.36,24.06-31.99,9.87
				C81.76,224,97.25,204.27,111.58,206.06z"/>
			<path class="st19" d="M135.35,233.37c-2.56,0.77-5.64,1.33-8.45,0.88c-6.38-1.03-6.14-18.28-14.68-20.86
				c-8.54-2.57-16.82,8.37-16.82,8.37l-1.81,2.8c1.11,4.55,4.66,9.34,11.8,13.63C122.61,248.53,131.67,239.76,135.35,233.37z"/>
			<path class="st19" d="M105.39,238.19c11.35,6.82,19.16,5.33,24.22,1.69c-3.9,0.14-8-0.1-10.17-1.4
				c-4.89-2.92-6.64-14.54-11.53-17.46c-4.89-2.92-14.31,3.54-14.31,3.54C94.7,229.11,98.25,233.91,105.39,238.19z"/>
			<path class="st17" d="M38.75,182.88c0,0-8.14-19.6-5.29-19.4c2.85,0.2,12.98,13.84,12.16,15.02
				C44.8,179.68,38.75,182.88,38.75,182.88z"/>
			<path class="st3" d="M34.86,190.17c0,0,1.35-15.95,20.67-12.38c19.31,3.57,15.32,25.85,12.53,35.77c0,0,23-8.85,32.85,1.76
				c9.85,10.61,5.74,53.09-47.77,30.11c0,0-13.5-7.72-14.63-16.16c-1.14-8.44,2.58-20.08,2.58-20.08s-8.01,3.7-13.71-2.04
				C21.68,201.4,32.44,190.81,34.86,190.17z"/>
			<path class="st0" d="M39.72,209.68c1.39-7.94-4.19-12.83-9.57-15.63c-3.33,3.77-6.41,9.42-2.77,13.09
				C31.64,211.45,37.19,210.46,39.72,209.68z"/>
			<path class="st28" d="M39.72,209.68c1.39-7.94-4.19-12.83-9.57-15.63c-3.33,3.77-6.41,9.42-2.77,13.09
				C31.64,211.45,37.19,210.46,39.72,209.68z"/>
			<path class="st6" d="M49.26,197.27l-2.02-0.41c-1.34-0.28-2.21-1.59-1.94-2.93l0.96-4.7c0.28-1.34,1.59-2.21,2.93-1.94l2.02,0.41
				c1.34,0.28,2.21,1.59,1.94,2.93l-0.96,4.7C51.92,196.68,50.61,197.55,49.26,197.27z"/>
			<path class="st3" d="M52.58,181c0,0-0.88-16.21,7.18-15.52c8.06,0.7-0.33,16.54-2.03,18.29"/>
			<g>
				<path class="st0" d="M58.71,169.45c3.38,1.08,0.1,10.82-2.74,10.88C53.13,180.4,55.33,168.38,58.71,169.45z"/>
				<path class="st28" d="M58.71,169.45c3.38,1.08,0.1,10.82-2.74,10.88C53.13,180.4,55.33,168.38,58.71,169.45z"/>
			</g>
			<path class="st3" d="M41.68,231.45c0,0-17.1,18.26-16.13,22.85c0.97,4.59,7.69,10.93,11.99,7.61s14.95-20.8,14.95-20.8"/>
			<path class="st0" d="M28.56,247.42c-1.98,2.94-3.29,5.51-3,6.88c0.97,4.59,7.69,10.93,11.99,7.61c1.09-0.84,2.59-2.59,4.21-4.73
				C38.93,253.49,32.31,249.5,28.56,247.42z"/>
			<path class="st19" d="M28.56,247.42c-1.98,2.94-3.29,5.51-3,6.88c0.97,4.59,7.69,10.93,11.99,7.61c1.09-0.84,2.59-2.59,4.21-4.73
				C38.93,253.49,32.31,249.5,28.56,247.42z"/>
			<path class="st3" d="M87.52,247.13c0,0,12.21,22.37,16.98,21.44c4.77-0.93,9.13-4.45,8.52-8.01
				c-0.61-3.56-11.41-24.47-11.41-24.47"/>
		</g>
		<path class="st0" d="M113.02,260.56c-0.15-0.85-0.88-2.7-1.9-5.01c-5.22,0.53-10.25,4.09-13.7,7.16c2.71,3.54,5.37,6.2,7.08,5.86
			C109.27,267.64,113.63,264.12,113.02,260.56z"/>
		<path class="st19" d="M113.02,260.56c-0.15-0.85-0.88-2.7-1.9-5.01c-5.22,0.53-10.25,4.09-13.7,7.16c2.71,3.54,5.37,6.2,7.08,5.86
			C109.27,267.64,113.63,264.12,113.02,260.56z"/>
	</g>
		<!-- arc en ciel -->
	<g >
		<g>
			<path class="st0" d="M363.52,438.82c0,0-7.28-38.19,27.97-51.71c35.26-13.52,52.92,32.15,53.52,47.87l-22.76,1.33
				c0,0-3.6-27.7-19.36-23.28c-12.57,3.53-9.85,26.18-10.35,26.54C392.05,439.93,363.52,438.82,363.52,438.82z"/>
			<path class="st29" d="M363.52,438.82c0,0-7.28-38.19,27.97-51.71c35.26-13.52,52.92,32.15,53.52,47.87l-22.76,1.33
				c0,0-3.6-27.7-19.36-23.28c-12.57,3.53-9.85,26.18-10.35,26.54C392.05,439.93,363.52,438.82,363.52,438.82z"/>
			<path class="st0" d="M436.22,435.5c-4.87-24.19-16.23-51.39-40.19-43.79c-20.06,6.36-24.08,35.44-24.64,47.41
				c8.49,0.3,20.84,0.7,21.17,0.46c0.5-0.36-2.22-23.01,10.35-26.54c15.76-4.42,19.36,23.28,19.36,23.28L436.22,435.5z"/>
			<path class="st30" d="M436.22,435.5c-4.87-24.19-16.23-51.39-40.19-43.79c-20.06,6.36-24.08,35.44-24.64,47.41
				c8.49,0.3,20.84,0.7,21.17,0.46c0.5-0.36-2.22-23.01,10.35-26.54c15.76-4.42,19.36,23.28,19.36,23.28L436.22,435.5z"/>
			<path class="st0" d="M428.87,435.93c-2.87-21.8-12.86-38.43-29.88-32.97c-14.39,4.61-17.01,25.94-17.42,36.49
				c5.78,0.17,10.77,0.27,10.97,0.13c0.5-0.36-2.22-23.01,10.35-26.54c15.76-4.42,19.36,23.28,19.36,23.28L428.87,435.93z"/>
		</g>
		<path class="st0" d="M352.49,446.22c0,0-5.06-3.32-1.74-8.76c3.31-5.44,7.53-2.25,7.53-2.25s1.36-7.31,8.67-8.86
			c7.31-1.55,11.78,6.15,11.78,6.15s9.29-5.12,15.55,0.47c6.26,5.59,1.85,13.35,1.85,13.35s3.3,6.58-2.82,13.31
			c-5.56,6.11-16.92-0.13-16.92-0.13s-5.49,7.18-13.89,4.85c-8.4-2.32-7.86-8.62-7.86-8.62S345.43,451.9,352.49,446.22z"/>
		<path class="st31" d="M352.49,446.22c0,0-5.06-3.32-1.74-8.76c3.31-5.44,7.53-2.25,7.53-2.25s1.36-7.31,8.67-8.86
			c7.31-1.55,11.78,6.15,11.78,6.15s9.29-5.12,15.55,0.47c6.26,5.59,1.85,13.35,1.85,13.35s3.3,6.58-2.82,13.31
			c-5.56,6.11-16.92-0.13-16.92-0.13s-5.49,7.18-13.89,4.85c-8.4-2.32-7.86-8.62-7.86-8.62S345.43,451.9,352.49,446.22z"/>
		<g>
			<path class="st0" d="M413.7,443.42c0,0-7.37-4.33-3.02-10.96c4.35-6.63,11.99-2.99,11.99-2.99s1.73-10.31,12.98-11.52
				s18.4,10.6,17.5,16.78c0,0,6.42-0.54,8.9,5.77c2.48,6.31-0.44,9.65-8.54,11.38c0,0-10,12.16-24.37,10.05
				c-14.37-2.12-11.95-12.17-11.95-12.17s-5.56,0.69-7.26-2.4S413.7,443.42,413.7,443.42z"/>
			<path class="st31" d="M413.7,443.42c0,0-7.37-4.33-3.02-10.96c4.35-6.63,11.99-2.99,11.99-2.99s1.73-10.31,12.98-11.52
				s18.4,10.6,17.5,16.78c0,0,6.42-0.54,8.9,5.77c2.48,6.31-0.44,9.65-8.54,11.38c0,0-10,12.16-24.37,10.05
				c-14.37-2.12-11.95-12.17-11.95-12.17s-5.56,0.69-7.26-2.4S413.7,443.42,413.7,443.42z"/>
		</g>
	</g>
		<!-- fille sousou rouge -->

		<!-- fille sous licorne -->

		<!-- fille en dessus nounours -->

		<!-- fille en dessus licorne -->
</g>
</svg>